<?xml version="1.0" encoding="UTF-8" standalone="no"?>
<!DOCTYPE svg PUBLIC "-//W3C//DTD SVG 1.1//EN" "http://www.w3.org/Graphics/SVG/1.1/DTD/svg11.dtd">
<svg width="100%" height="100%" viewBox="0 0 3508 2481" version="1.1" xmlns="http://www.w3.org/2000/svg" xmlns:xlink="http://www.w3.org/1999/xlink" xml:space="preserve" xmlns:serif="http://www.serif.com/" style="fill-rule:evenodd;clip-rule:evenodd;stroke-linecap:round;stroke-linejoin:round;stroke-miterlimit:1.5;">
    <path d="M122.113,176.805C1140.26,156.335 2153.23,143.632 3161.51,137.976" style="fill:none;stroke:rgb(255,0,0);stroke-width:1px;"/>
    <g transform="matrix(1,0,0,1,0,27)">
        <path d="M117.483,176.805C1137.4,156.005 2151.47,143.962 3161.51,137.976" style="fill:none;stroke:rgb(255,0,0);stroke-width:1px;"/>
    </g>
    <g transform="matrix(1,0,0,1,0,54)">
        <path d="M116.558,175.879C1132.85,154.109 2147.69,142.463 3161.51,137.976" style="fill:none;stroke:rgb(255,0,0);stroke-width:1px;"/>
    </g>
    <g transform="matrix(1,0,0,1,0,83)">
        <path d="M116.558,174.953C1133.91,154.586 2148.16,143.528 3160.58,137.976" style="fill:none;stroke:rgb(255,0,0);stroke-width:1px;"/>
    </g>
    <g transform="matrix(1,0,0,1,0,111)">
        <path d="M114.706,176.805C1134.32,152.859 2149.3,141.244 3161.51,137.05" style="fill:none;stroke:rgb(255,0,0);stroke-width:1px;"/>
    </g>
    <g transform="matrix(1,0,0,1,0,297)">
        <path d="M120.261,175.879C1132.88,156.97 2146.11,145.775 3166.14,141.68" style="fill:none;stroke:rgb(255,0,0);stroke-width:1px;"/>
    </g>
    <g transform="matrix(1,0,0,1,0,325)">
        <path d="M120.261,172.175C1136.85,150.756 2149.55,141.496 3166.14,139.828" style="fill:none;stroke:rgb(255,0,0);stroke-width:1px;"/>
    </g>
    <g transform="matrix(1,0,0,1,0,348)">
        <path d="M125.816,178.657C1158.14,154.007 2160.06,143.485 3165.21,143.531" style="fill:none;stroke:rgb(255,0,0);stroke-width:1px;"/>
    </g>
    <g transform="matrix(1,0,0,1,0,375)">
        <path d="M119.335,177.731C1136.17,157.118 2153.01,145.935 3169.84,142.605" style="fill:none;stroke:rgb(255,0,0);stroke-width:1px;"/>
    </g>
    <g transform="matrix(1,0,0,1,0,403)">
        <path d="M115.632,177.731C1132.47,153.957 2149.3,142.306 3166.14,140.754" style="fill:none;stroke:rgb(255,0,0);stroke-width:1px;"/>
    </g>
    <path d="M142.839,201.22C144.573,195.685 154.327,152.1 143.526,152.677C106.462,154.659 120.816,429.464 121.385,461.697C121.557,471.452 121.839,696.459 33.526,663.355C0.724,651.059 -5.696,573.224 36.88,563.795C43.002,562.439 51.215,569.602 51.845,581.067" style="fill:none;stroke:rgb(255,0,0);stroke-width:1px;"/>
    <path d="M195.743,147.258C199.487,147.258 211.643,125.744 227.485,139.852C243.743,154.331 214.863,190.49 209.498,201.22C200.231,219.753 128.315,313.36 157.027,333.772C168.541,341.957 184.504,314.59 192.568,302.795C198.985,293.409 213.808,264.389 205.648,256.228C198.029,248.609 195.983,257.026 191.702,262.385" style="fill:none;stroke:rgb(255,0,0);stroke-width:1px;"/>
    <path d="M316.309,94.241C307.131,96.536 281.966,221.17 279.623,244.146" style="fill:none;stroke:rgb(255,0,0);stroke-width:1px;"/>
    <path d="M318.479,139.852C307.97,139.852 289.971,214.895 281.996,252.157" style="fill:none;stroke:rgb(255,0,0);stroke-width:1px;"/>
    <path d="M289.343,144.467C295.172,148.627 306.655,153.754 307.259,164.457" style="fill:none;stroke:rgb(255,0,0);stroke-width:1px;"/>
    <path d="M283.216,173.746C283.216,182.368 295.62,182.194 302.901,189.396" style="fill:none;stroke:rgb(255,0,0);stroke-width:1px;"/>
    <path d="M325.282,200.126C329.442,208.536 339.226,209.988 350.436,204.442" style="fill:none;stroke:rgb(255,0,0);stroke-width:1px;"/>
    <path d="M323.877,202.039C331.365,222.502 342.368,229.584 341.262,223.565" style="fill:none;stroke:rgb(255,0,0);stroke-width:1px;"/>
    <path d="M338.726,187.632C336.483,187.632 322.481,228.908 318.736,266.426" style="fill:none;stroke:rgb(255,0,0);stroke-width:1px;"/>
    <path d="M356.916,159.896C356.916,159.726 339.955,235.713 329.299,254.853" style="fill:none;stroke:rgb(255,0,0);stroke-width:1px;"/>
    <path d="M410.824,99.2C410.824,97.178 379.796,179.3 378.508,209.251" style="fill:none;stroke:rgb(255,0,0);stroke-width:1px;"/>
    <path d="M422.481,104.422C422.481,109.801 400.901,170.636 400.207,201.238" style="fill:none;stroke:rgb(255,0,0);stroke-width:1px;"/>
    <path d="M396.776,120.807C396.776,119.845 406.825,143.904 412.372,149.405" style="fill:none;stroke:rgb(255,0,0);stroke-width:1px;"/>
    <path d="M389.387,145.07C389.387,152.604 394.788,158.108 405.02,163.309" style="fill:none;stroke:rgb(255,0,0);stroke-width:1px;"/>
    <path d="M441.215,167.362C441.215,167.54 419.221,223.266 417.83,265.547" style="fill:none;stroke:rgb(255,0,0);stroke-width:1px;"/>
    <path d="M455.592,159.513C446.372,176.502 428.518,252.285 428.518,259.414C428.518,260.825 428.518,260.825 428.518,259.414" style="fill:none;stroke:rgb(255,0,0);stroke-width:1px;"/>
    <path d="M424.011,187.064C429.212,189.316 431.009,187.788 437.706,187.788" style="fill:none;stroke:rgb(255,0,0);stroke-width:1px;"/>
    <path d="M423.228,208.626C423.228,218.397 435.66,215.663 442.196,211.155" style="fill:none;stroke:rgb(255,0,0);stroke-width:1px;"/>
    <path d="M188.666,467.05C171.4,475.975 205.037,479.734 199.21,513.925C197.824,522.056 186.907,530.671 175.639,527.106" style="fill:none;stroke:rgb(255,0,0);stroke-width:1px;"/>
    <path d="M228.543,485.841L228.543,482.667" style="fill:none;stroke:black;stroke-width:1px;"/>
    <path d="M228.543,504.886C227.635,505.795 227.983,505.944 226.427,505.944" style="fill:none;stroke:black;stroke-width:1px;"/>
    <path d="M285.679,450.002C278.356,458.036 259.246,517.826 262.13,547.896" style="fill:none;stroke:rgb(255,0,0);stroke-width:1px;"/>
    <path d="M293.085,456.215C283.177,477.073 273.38,523.082 272.432,542.893" style="fill:none;stroke:rgb(255,0,0);stroke-width:1px;"/>
    <path d="M265.575,463.622C275.53,472.96 286.88,491.604 286.043,490.767" style="fill:none;stroke:rgb(255,0,0);stroke-width:1px;"/>
    <path d="M258.169,497.48C265.753,501.178 272.659,507.021 277.874,514.011" style="fill:none;stroke:rgb(255,0,0);stroke-width:1px;"/>
    <path d="M329.279,489.379C313.701,521.689 306.132,574.62 305.994,597.253" style="fill:none;stroke:rgb(255,0,0);stroke-width:1px;"/>
    <path d="M338.438,488.837C338.438,495.921 318.327,559.504 316.905,575.997" style="fill:none;stroke:rgb(255,0,0);stroke-width:1px;"/>
    <path d="M305.122,532.574C313.313,540.765 318.995,544.684 326.105,548.919" style="fill:none;stroke:rgb(255,0,0);stroke-width:1px;"/>
    <path d="M320.527,499.376C323.845,508.614 330.379,514.362 337.49,516.237" style="fill:none;stroke:rgb(255,0,0);stroke-width:1px;"/>
    <path d="M407.755,416.202C408.817,415.139 382.031,512.061 378.713,535.665" style="fill:none;stroke:rgb(255,0,0);stroke-width:1px;"/>
    <path d="M412.977,443.086C405.736,456.833 391.975,499.429 391.19,515.399" style="fill:none;stroke:rgb(255,0,0);stroke-width:1px;"/>
    <path d="M378.611,464.9C385.247,479.523 387.261,481.2 396.268,488.177" style="fill:none;stroke:rgb(255,0,0);stroke-width:1px;"/>
    <path d="M390.943,440.674C397.262,451.531 406.805,464.788 411.885,465.339" style="fill:none;stroke:rgb(255,0,0);stroke-width:1px;"/>
    <path d="M470.094,470.835C470.098,482.363 452.77,534.172 454.253,561.882" style="fill:none;stroke:rgb(255,0,0);stroke-width:1px;"/>
    <path d="M479.306,480.551C479.306,497.231 464.638,524.044 464.064,555.696" style="fill:none;stroke:rgb(255,0,0);stroke-width:1px;"/>
    <path d="M458.011,507.173C456.517,515.993 464.129,517.157 472.017,518.16" style="fill:none;stroke:rgb(255,0,0);stroke-width:1px;"/>
    <path d="M460.393,485.094C460.862,485.094 466.692,501.828 478.839,506.396" style="fill:none;stroke:rgb(255,0,0);stroke-width:1px;"/>
    <path d="M535.055,504.126C533.202,504.126 552.327,513.638 554.912,519.74" style="fill:none;stroke:rgb(255,0,0);stroke-width:1px;"/>
    <path d="M542.101,480.294C552.364,485.406 565.364,497.627 565.009,520.326C564.742,537.464 540.253,578.16 540.253,578.16" style="fill:none;stroke:rgb(255,0,0);stroke-width:1px;"/>
    <path d="M663.687,376.325C652.315,402.163 638.253,519.615 638.253,509.488" style="fill:none;stroke:rgb(255,0,0);stroke-width:1px;"/>
    <path d="M633.02,523.122C620.559,537.12 634.49,541.475 634.569,523.537" style="fill:none;stroke:rgb(255,0,0);stroke-width:1px;"/>
    <path d="M701.141,367.789C695.853,392.492 681.891,464.391 680.781,472.908" style="fill:none;stroke:rgb(255,0,0);stroke-width:1px;"/>
    <path d="M675.152,496.121C675.105,503.987 669.436,509.177 667.173,507.647C665.603,506.586 669.877,495.369 673.576,494.993" style="fill:none;stroke:rgb(255,0,0);stroke-width:1px;"/>
    <path d="M747.501,336.797C737.547,362.991 720.556,447.015 720.556,444.966" style="fill:none;stroke:rgb(255,0,0);stroke-width:1px;"/>
    <path d="M718.827,465.246C717.702,465.246 708.185,473.677 711.537,478.562C714.064,482.243 722.846,470.308 721.006,465.775" style="fill:none;stroke:rgb(255,0,0);stroke-width:1px;"/>
    <g transform="matrix(1,0,0,1,115.082,-29.9038)">
        <path d="M721.77,459.122C720.645,459.122 708.503,476.143 711.855,481.027C714.382,484.709 726.107,464.184 724.267,459.651" style="fill:none;stroke:rgb(255,0,0);stroke-width:1px;"/>
    </g>
    <path d="M627.682,443.796C672.412,409.125 755.981,343.648 754.404,343.648" style="fill:none;stroke:rgb(255,0,0);stroke-width:1px;"/>
    <path d="M626.356,443.703C663.026,407.446 760.833,320.502 781.267,311.629" style="fill:none;stroke:rgb(255,0,0);stroke-width:1px;"/>
    <path d="M867.289,338.687C858.071,361.431 842.317,429.163 842.317,427.4" style="fill:none;stroke:rgb(255,0,0);stroke-width:1px;"/>
    <path d="M816.378,437.848C823.197,439.234 836.594,441.587 850.463,442.45" style="fill:none;stroke:rgb(255,0,0);stroke-width:1px;"/>
    <path d="M921.928,340.659C916.658,354.668 897.111,438.014 892.673,473.626" style="fill:none;stroke:rgb(255,0,0);stroke-width:1px;"/>
    <path d="M879.405,493.755C880.929,495.302 877.968,507.97 875.522,507.393C874.172,507.074 873.727,493.102 877.829,492.306" style="fill:none;stroke:rgb(255,0,0);stroke-width:1px;"/>
    <path d="M978.643,313.725C963.666,349.753 948.74,444.222 948.74,442.85" style="fill:none;stroke:rgb(255,0,0);stroke-width:1px;"/>
    <path d="M944.453,451.76C939.197,454.904 926.566,473.882 933.457,478.369C935.726,479.847 956.258,448.516 945.76,451.788" style="fill:none;stroke:rgb(255,0,0);stroke-width:1px;"/>
    <path d="M1040.05,302.918C1029.79,331.022 1023.91,373.198 1017.46,408.807" style="fill:none;stroke:rgb(255,0,0);stroke-width:1px;"/>
    <path d="M1002.15,417.45C996.479,417.45 989.968,435.94 992.383,439.469C993.591,441.233 1003.74,424.386 1002.44,418.342" style="fill:none;stroke:rgb(255,0,0);stroke-width:1px;"/>
    <path d="M984.683,428.602C993.311,427.216 1007.37,424.236 1022.98,425.346" style="fill:none;stroke:rgb(255,0,0);stroke-width:1px;"/>
    <path d="M845.716,402.665C910.257,341.089 1019.21,306.523 1056.47,295.861" style="fill:none;stroke:rgb(255,0,0);stroke-width:1px;"/>
    <path d="M857.992,405.068C886.343,377.609 991.528,326.094 1068.65,302.795" style="fill:none;stroke:rgb(255,0,0);stroke-width:1px;"/>
    <path d="M1204.62,258.611C1202.24,258.73 1197.03,267.523 1199.85,268.936C1204.41,271.214 1209.26,259.79 1206.68,259.79" style="fill:none;stroke:rgb(255,0,0);stroke-width:1px;"/>
    <path d="M1207.61,260.708C1205.67,316.782 1183.98,371.248 1183.98,404.37" style="fill:none;stroke:rgb(255,0,0);stroke-width:1px;"/>
    <path d="M1215.29,455.282C1206.79,453.622 1202.96,470.126 1206.38,472.086C1212.34,475.504 1218.92,461.056 1218.92,458.145" style="fill:none;stroke:rgb(255,0,0);stroke-width:1px;"/>
    <path d="M1258.2,245.576C1247.38,268.965 1219.48,387.735 1219.48,434.951" style="fill:none;stroke:rgb(255,0,0);stroke-width:1px;"/>
    <path d="M1264.39,413.892C1252.67,413.892 1251.8,433.642 1255.65,434.439C1260.31,435.404 1265.78,423.726 1262.75,417.961" style="fill:none;stroke:rgb(255,0,0);stroke-width:1px;"/>
    <path d="M1242.01,421.003C1253.59,420.104 1273.78,422.637 1288.01,425.671" style="fill:none;stroke:rgb(255,0,0);stroke-width:1px;"/>
    <path d="M1290.52,271.145C1283.3,303.863 1269.77,407.279 1269.77,406.188" style="fill:none;stroke:rgb(255,0,0);stroke-width:1px;"/>
    <path d="M1340.43,258.333C1332.26,256.513 1327.3,266.521 1328.94,268.167C1332.98,272.197 1337.27,268.457 1339.84,263.631" style="fill:none;stroke:rgb(255,0,0);stroke-width:1px;"/>
    <path d="M1342.94,259.506C1340.41,259.506 1339.1,291.638 1335.04,301.449" style="fill:none;stroke:rgb(255,0,0);stroke-width:1px;"/>
    <path d="M1169.52,383.136C1247.15,330.159 1337.83,302.754 1366.81,283.893" style="fill:none;stroke:rgb(255,0,0);stroke-width:1px;"/>
    <path d="M1182.63,394.796C1211.52,374.574 1344.17,316.847 1378.67,299.621" style="fill:none;stroke:rgb(255,0,0);stroke-width:1px;"/>
    <path d="M1502.57,226.957C1498.3,225.316 1493.91,236.552 1497.7,242.478C1501.16,247.886 1505.07,234.747 1504.57,228.159" style="fill:none;stroke:rgb(255,0,0);stroke-width:1px;"/>
    <path d="M1505.91,237.266C1505.91,248.445 1492.32,319.406 1480.67,342.2" style="fill:none;stroke:rgb(255,0,0);stroke-width:1px;"/>
    <path d="M1546.46,292.555C1542.48,293.391 1536.09,312.216 1539.19,313.915C1546.88,318.12 1555.26,290.666 1549.78,292.363" style="fill:none;stroke:rgb(255,0,0);stroke-width:1px;"/>
    <path d="M1514.1,303.853C1527.13,298.194 1566.41,297.157 1571.27,306.79" style="fill:none;stroke:rgb(255,0,0);stroke-width:1px;"/>
    <path d="M1569.29,163.376C1561.13,218.699 1551.92,247.948 1548.04,294.474" style="fill:none;stroke:rgb(255,0,0);stroke-width:1px;"/>
    <path d="M1602.9,254.507C1598.89,254.507 1589.21,263.683 1593.87,265.429C1601.25,268.195 1604.92,260.864 1605.72,255.899" style="fill:none;stroke:rgb(255,0,0);stroke-width:1px;"/>
    <path d="M1635.27,128.305C1627.05,154.1 1614.82,207.886 1608.16,234.318" style="fill:none;stroke:rgb(255,0,0);stroke-width:1px;"/>
    <path d="M1663.73,225.08C1661.17,222.814 1645.03,233.907 1648.42,239.083C1651.8,244.264 1665.44,230.627 1665.73,226.266" style="fill:none;stroke:rgb(255,0,0);stroke-width:1px;"/>
    <path d="M1675.98,122.923C1675.98,130.543 1654.23,187.838 1651.73,206.643" style="fill:none;stroke:rgb(255,0,0);stroke-width:1px;"/>
    <path d="M1480.76,280.781C1524.76,246.286 1649.74,123.272 1694.09,123.272" style="fill:none;stroke:rgb(255,0,0);stroke-width:1px;"/>
    <path d="M1482.51,280C1536.14,234.512 1616.13,177.943 1672.83,141.608" style="fill:none;stroke:rgb(255,0,0);stroke-width:1px;"/>
    <path d="M1863.37,114.848C1830.7,217.474 1795.09,490.782 1797.31,630.036" style="fill:none;stroke:rgb(255,0,0);stroke-width:1px;"/>
    <path d="M1954.17,179.079C1946.12,176.928 1939.21,187.891 1943.43,190.597C1948.51,193.857 1956.66,188.2 1955.28,181.515" style="fill:none;stroke:rgb(255,0,0);stroke-width:1px;"/>
    <path d="M1957,190.228C1957,187.247 1930.78,281.513 1925.24,316.087" style="fill:none;stroke:rgb(255,0,0);stroke-width:1px;"/>
    <path d="M1981.11,249.117C1977.12,245.128 1967.8,254.523 1971.75,260.479C1973.34,262.879 1986.57,255.449 1982.49,250.587" style="fill:none;stroke:rgb(255,0,0);stroke-width:1px;"/>
    <path d="M1981.56,255.305C1977.11,268.076 1971.72,287.387 1967.56,303.791" style="fill:none;stroke:rgb(255,0,0);stroke-width:1px;"/>
    <path d="M2029.07,221.927C2022.62,221.752 2017.52,230.708 2020.26,233.452C2022.06,235.251 2032.53,223.354 2029.99,223.354" style="fill:none;stroke:rgb(255,0,0);stroke-width:1px;"/>
    <path d="M2031.47,225.556C2025.8,242.039 2019.3,262.635 2019.3,281.828" style="fill:none;stroke:rgb(255,0,0);stroke-width:1px;"/>
    <path d="M2079.44,183.375C2077.11,183.375 2065.67,186.386 2065.49,191.875C2065.29,197.953 2080.39,187.459 2080.39,185.37" style="fill:none;stroke:rgb(255,0,0);stroke-width:1px;"/>
    <path d="M2082.18,188.266C2069.91,204.524 2069.76,222.954 2060.74,241.118" style="fill:none;stroke:rgb(255,0,0);stroke-width:1px;"/>
    <path d="M1891.95,360.917C1940.51,317.502 2074.38,230.943 2100.32,217.554" style="fill:none;stroke:rgb(255,0,0);stroke-width:1px;"/>
    <path d="M1889.23,377.24C1934.26,332.665 2071.51,248.808 2098.15,232.962" style="fill:none;stroke:rgb(255,0,0);stroke-width:1px;"/>
    <path d="M2207.28,151.022C2207.28,146.354 2182.9,157.619 2189.14,163.861C2194.07,168.785 2208.64,156.753 2209.32,151.683" style="fill:none;stroke:rgb(255,0,0);stroke-width:1px;"/>
    <path d="M2199.25,161.588C2199.25,173.625 2163.65,287.816 2163.65,287.016" style="fill:none;stroke:rgb(255,0,0);stroke-width:1px;"/>
    <path d="M2215.47,218.455C2213.1,218.455 2200.26,226.168 2205.45,231.954C2206.51,233.132 2217.43,230.413 2217.6,220.4" style="fill:none;stroke:rgb(255,0,0);stroke-width:1px;"/>
    <path d="M2216,223.789C2211.78,241.128 2207.67,254.992 2200.74,280.636" style="fill:none;stroke:rgb(255,0,0);stroke-width:1px;"/>
    <path d="M2270.76,181.791C2260.65,180.478 2251.87,187.798 2256.01,191.946C2263.24,199.175 2269.92,186.769 2272.5,182.58" style="fill:none;stroke:rgb(255,0,0);stroke-width:1px;"/>
    <path d="M2266.39,186.273C2259.53,204.556 2252.21,231.519 2245,246.686" style="fill:none;stroke:rgb(255,0,0);stroke-width:1px;"/>
    <path d="M2311.74,150.937C2306.61,151.17 2295.51,160.094 2299.92,162.299C2301.94,163.307 2311.19,161.543 2313.87,153.685" style="fill:none;stroke:rgb(255,0,0);stroke-width:1px;"/>
    <path d="M2308.1,161.044C2310.07,174.837 2307.18,192.751 2298.3,200.788" style="fill:none;stroke:rgb(255,0,0);stroke-width:1px;"/>
    <path d="M2136.87,322.826C2185.04,291.636 2297.81,213.095 2321.29,202.833" style="fill:none;stroke:rgb(255,0,0);stroke-width:1px;"/>
    <path d="M2188.95,301.932C2221.13,276.732 2296.05,226.224 2316.12,211.801" style="fill:none;stroke:rgb(255,0,0);stroke-width:1px;"/>
    <path d="M2433.59,121.19C2431.8,119.244 2427.59,125.396 2428.27,127.155C2430.68,133.396 2438.05,122.177 2435.59,122.177" style="fill:none;stroke:rgb(255,0,0);stroke-width:1px;"/>
    <path d="M2436.18,127.175C2427.81,156.813 2399.51,234.493 2399.51,232.582" style="fill:none;stroke:rgb(255,0,0);stroke-width:1px;"/>
    <path d="M2452.05,182.118C2453.34,182.979 2441.31,189.864 2440.23,187.387C2439.22,185.067 2441.67,180.826 2450.04,180.826" style="fill:none;stroke:rgb(255,0,0);stroke-width:1px;"/>
    <path d="M2450.49,186.407C2445.47,206.49 2438.45,217.418 2436.23,238.119" style="fill:none;stroke:rgb(255,0,0);stroke-width:1px;"/>
    <path d="M2500.95,152.719C2500.65,146.97 2490.53,158.567 2493.38,161.461C2495.25,163.368 2508.07,153.06 2502.62,153.06" style="fill:none;stroke:rgb(255,0,0);stroke-width:1px;"/>
    <path d="M2502.34,157.839C2498.74,175.181 2487.65,195.222 2481.55,221.334" style="fill:none;stroke:rgb(255,0,0);stroke-width:1px;"/>
    <path d="M2556.63,118.222C2559.42,119.459 2547.76,127.247 2544.57,125.038C2542.59,123.664 2549.78,112.908 2553.23,116.539" style="fill:none;stroke:rgb(255,0,0);stroke-width:1px;"/>
    <g transform="matrix(1.22224,-0.169377,0.167088,1.20573,-561.021,378.228)">
        <path d="M2556.63,118.222C2559.42,119.459 2547.76,127.247 2544.57,125.038C2542.59,123.664 2549.78,112.908 2553.23,116.539" style="fill:none;stroke:rgb(255,0,0);stroke-width:0.82px;"/>
    </g>
    <path d="M2556.56,121.815C2553.67,143.499 2529.89,181.784 2519.41,191.214" style="fill:none;stroke:rgb(255,0,0);stroke-width:1px;"/>
    <path d="M2375.67,295.645C2405.47,270.706 2502.27,213.692 2555.24,186.407" style="fill:none;stroke:rgb(255,0,0);stroke-width:1px;"/>
    <path d="M2389.06,308.845C2421.14,282.218 2506.97,238.099 2554.03,218.961" style="fill:none;stroke:rgb(255,0,0);stroke-width:1px;"/>
    <path d="M2725.1,47.161C2725.1,46.872 2710.86,61.526 2713.31,64.736C2717.83,70.642 2727.61,56.39 2726.81,49.596" style="fill:none;stroke:rgb(255,0,0);stroke-width:1px;"/>
    <path d="M2700.93,115.431C2699.15,117.205 2688.02,123.069 2689.52,127.311C2690.79,130.939 2705.34,123.836 2704.9,116.915" style="fill:none;stroke:rgb(255,0,0);stroke-width:1px;"/>
    <path d="M2697.12,149.943C2689.66,148.243 2684.55,160.943 2686.73,163.57C2689.6,167.025 2697.42,155.825 2699.33,152.002" style="fill:none;stroke:rgb(255,0,0);stroke-width:1px;"/>
    <path d="M2686.91,176.281C2682.57,178.165 2675.95,185.216 2679.85,188.033C2684.7,191.531 2687.25,184.559 2689.24,178.149" style="fill:none;stroke:rgb(255,0,0);stroke-width:1px;"/>
    <path d="M2717.88,53.408C2711.8,71.437 2709.54,107.271 2705.49,123.981C2696.68,160.284 2674.9,239.43 2670.6,287.252" style="fill:none;stroke:rgb(255,0,0);stroke-width:1px;"/>
    <path d="M2700.64,49.294C2711.24,51.114 2727.2,49.557 2746.88,56.264" style="fill:none;stroke:rgb(255,0,0);stroke-width:1px;"/>
    <path d="M2677.64,85.058C2696.77,76.445 2730.29,76.694 2750.09,78.247" style="fill:none;stroke:rgb(255,0,0);stroke-width:1px;"/>
    <path d="M2837.69,51.088C2834.43,47.285 2827.79,60.857 2830.71,65.524C2832.16,67.837 2838.82,56.802 2838.82,53.539" style="fill:none;stroke:rgb(255,0,0);stroke-width:1px;"/>
    <path d="M2826.54,109.821C2824.28,109.821 2810.85,114.873 2816.78,120.807C2821.47,125.494 2828.25,114.788 2829.44,111.986" style="fill:none;stroke:rgb(255,0,0);stroke-width:1px;"/>
    <path d="M2813.77,149.664C2811.08,146.182 2802.8,154.899 2805.1,159.025C2807.34,163.052 2816.96,152.443 2816.96,150.737" style="fill:none;stroke:rgb(255,0,0);stroke-width:1px;"/>
    <path d="M2810.21,173.357C2807.31,181.107 2806.4,186.76 2800.32,185.467C2795.82,184.512 2799.9,173.419 2808.12,172.306" style="fill:none;stroke:rgb(255,0,0);stroke-width:1px;"/>
    <path d="M2841.98,53.09C2844.51,53.09 2803.13,204.626 2787.6,270.529" style="fill:none;stroke:rgb(255,0,0);stroke-width:1px;"/>
    <path d="M2788.41,68.375C2818.64,55.059 2846.89,62.464 2884.4,56.706" style="fill:none;stroke:rgb(255,0,0);stroke-width:1px;"/>
    <path d="M2791.14,84.041C2803.39,78.573 2838,75.699 2869.76,75.422" style="fill:none;stroke:rgb(255,0,0);stroke-width:1px;"/>
    <path d="M2654.7,303.853L2651.53,303.853" style="fill:none;stroke:black;stroke-width:1px;"/>
    <path d="M2631.58,315.789C2674.57,285.172 2764.57,242.479 2820.97,217.306" style="fill:none;stroke:rgb(255,0,0);stroke-width:1px;"/>
    <path d="M565.882,619.828C577.404,620.022 589.878,620.359 596.673,627.155" style="fill:none;stroke:rgb(255,0,0);stroke-width:1px;"/>
    <path d="M564.348,632.921C572.316,628.85 588.607,638.164 596.363,638.164" style="fill:none;stroke:rgb(255,0,0);stroke-width:1px;"/>
    <path d="M563.543,653.888C572.863,652.092 579.819,652.284 591.081,655.374" style="fill:none;stroke:rgb(255,0,0);stroke-width:1px;"/>
    <path d="M583.627,668.876C583.627,665.598 568.173,677.751 572.727,681.361C576.227,684.137 589.687,671.352 583.298,671.352" style="fill:none;stroke:rgb(255,0,0);stroke-width:1px;"/>
    <path d="M587.082,669.478C579.77,686.297 576.285,735.012 574.543,752.281" style="fill:none;stroke:rgb(255,0,0);stroke-width:1px;"/>
    <path d="M701.005,577.659C693.591,575.117 690.455,595.232 693.551,596.297C696.537,597.324 701.525,585.999 702.617,580.766" style="fill:none;stroke:rgb(255,0,0);stroke-width:1px;"/>
    <path d="M701.16,578.231C697.928,607.317 702.317,626.634 695.326,650.199" style="fill:none;stroke:rgb(255,0,0);stroke-width:1px;"/>
    <path d="M675.485,586.211C681.941,587.461 703.404,589.604 713.001,588.716" style="fill:none;stroke:rgb(255,0,0);stroke-width:1px;"/>
    <path d="M850.319,656.199C843.633,659.306 840.821,662.816 842.341,666.258C843.451,668.771 851.058,668.824 853.388,658.316" style="fill:none;stroke:rgb(255,0,0);stroke-width:1px;"/>
    <path d="M853.348,658.897C852.573,662.382 855.757,690.842 848.572,703.804" style="fill:none;stroke:rgb(255,0,0);stroke-width:1px;"/>
    <path d="M834.148,628.078C842.313,624.008 852.713,630.417 861.055,633.718" style="fill:none;stroke:rgb(255,0,0);stroke-width:1px;"/>
    <path d="M832.785,600.315C841.026,601.751 845.147,601.682 855.275,609.05" style="fill:none;stroke:rgb(255,0,0);stroke-width:1px;"/>
    <path d="M981.822,575.61C976.23,575.96 975.671,592.709 980.647,593.92C983.585,594.635 984.433,575.257 984.433,576.085" style="fill:none;stroke:rgb(255,0,0);stroke-width:1px;"/>
    <path d="M960.379,579.038C974.492,586.162 985.012,589.857 995.858,596.665" style="fill:none;stroke:rgb(255,0,0);stroke-width:1px;"/>
    <path d="M977.094,590.016C975.604,608.179 975.987,681.052 978.104,676.817" style="fill:none;stroke:rgb(255,0,0);stroke-width:1px;"/>
    <path d="M587.229,707.307C597.756,717.792 683.274,708.872 756.432,716.858C791.922,720.732 942.453,724.194 987.14,668.932" style="fill:none;stroke:rgb(255,0,0);stroke-width:1px;"/>
    <path d="M1196.86,613.537C1196.86,608.037 1177.86,620.681 1187.15,623.39C1191.99,624.8 1194.4,620.276 1198.43,616.011" style="fill:none;stroke:rgb(255,0,0);stroke-width:1px;"/>
    <path d="M1199.43,619.594C1200.08,637.505 1190.22,638.707 1190.22,651.947" style="fill:none;stroke:rgb(255,0,0);stroke-width:1px;"/>
    <path d="M1183.43,597.588C1192.92,597.9 1203.42,599.602 1211.19,605.907" style="fill:none;stroke:rgb(255,0,0);stroke-width:1px;"/>
    <path d="M1190.46,581.329C1197.74,580.189 1209.53,583.042 1216.39,589.695" style="fill:none;stroke:rgb(255,0,0);stroke-width:1px;"/>
    <path d="M1193.29,568.933C1201.86,570.907 1208.87,571.327 1220.16,571.553" style="fill:none;stroke:rgb(252,0,0);stroke-width:1px;"/>
    <path d="M1333.25,569.467C1327.4,570.766 1320.78,585.857 1329.19,585.707C1332.58,585.647 1336.08,575.482 1335.77,571.378" style="fill:none;stroke:rgb(255,0,0);stroke-width:1px;"/>
    <path d="M1324.66,585.066C1324.67,602.49 1324.87,616.808 1324.29,633.456" style="fill:none;stroke:rgb(255,0,0);stroke-width:1px;"/>
    <path d="M1309.44,575.504C1312.48,576.589 1335.65,587.61 1346.02,587.269" style="fill:none;stroke:rgb(255,0,0);stroke-width:1px;"/>
    <path d="M1496.61,624.022C1494.39,624.022 1482.91,628.725 1485.03,633.655C1486.9,637.992 1497.6,630.683 1498.09,625.709" style="fill:none;stroke:rgb(255,0,0);stroke-width:1px;"/>
    <path d="M1499.51,626.145C1497.5,637.281 1492.15,652.682 1488.27,663.76" style="fill:none;stroke:rgb(255,0,0);stroke-width:1px;"/>
    <path d="M1475.85,605.975C1479.52,605.975 1498.5,608.408 1508.28,604.77" style="fill:none;stroke:rgb(255,0,0);stroke-width:1px;"/>
    <path d="M1480.09,585.027C1486.97,586.115 1498.81,588.328 1510.02,586.464" style="fill:none;stroke:rgb(255,0,0);stroke-width:1px;"/>
    <path d="M1485.82,570.894C1492.39,570.132 1500.43,568.459 1505.59,578.057" style="fill:none;stroke:rgb(255,0,0);stroke-width:1px;"/>
    <path d="M1625.02,564.593C1620.71,560.285 1609.6,580.098 1618.9,584.923C1622.76,586.925 1629.79,572.669 1627.55,566.581" style="fill:none;stroke:rgb(255,0,0);stroke-width:1px;"/>
    <path d="M1615.67,576.835C1615.67,601.932 1615.03,613.921 1610.68,640.114" style="fill:none;stroke:rgb(255,0,0);stroke-width:1px;"/>
    <path d="M1599.55,574.669C1606.94,574.669 1626.1,575.586 1633.86,581.774" style="fill:none;stroke:rgb(255,0,0);stroke-width:1px;"/>
    <path d="M1173.19,688.923C1211.25,688.69 1263.69,678.137 1307.28,675.148C1372.3,670.688 1447.74,672.746 1479.43,664.973C1498.45,660.308 1614.15,650.278 1626.74,650.278" style="fill:none;stroke:rgb(255,0,0);stroke-width:1px;"/>
    <path d="M1933.46,639.027C1930.85,639.027 1923.64,649.653 1926.63,653.694C1929.95,658.182 1936.59,647.097 1935.77,640.263" style="fill:none;stroke:rgb(255,0,0);stroke-width:1px;"/>
    <path d="M1968.23,509.031C1956.8,528.448 1947.86,581.102 1946.91,594.638C1946.13,605.743 1941.92,626.513 1941.32,634.399" style="fill:none;stroke:rgb(255,0,0);stroke-width:1px;"/>
    <path d="M1915.46,620.245C1925.09,619.53 1944.22,621.274 1957.15,616.925" style="fill:none;stroke:rgb(255,0,0);stroke-width:1px;"/>
    <path d="M1918.32,599.239C1924.86,596.431 1932.85,594.714 1948.77,600.151" style="fill:none;stroke:rgb(255,0,0);stroke-width:1px;"/>
    <path d="M1908.46,586.202C1915.82,582.769 1958.55,583.298 1956.78,583.298" style="fill:none;stroke:rgb(255,0,0);stroke-width:1px;"/>
    <path d="M2039.77,562.779C2033.18,564.021 2028.71,573.122 2029.39,573.902C2034.6,579.876 2040.7,570.062 2041.2,563.716" style="fill:none;stroke:rgb(255,0,0);stroke-width:1px;"/>
    <path d="M2013.57,573.301C2027.39,573.342 2051.46,581.106 2064.71,574.892" style="fill:none;stroke:rgb(255,0,0);stroke-width:1px;"/>
    <path d="M2056.89,483.763C2052.03,491.977 2052.29,539.446 2052.53,554.927" style="fill:none;stroke:rgb(255,0,0);stroke-width:1px;"/>
    <path d="M2218.02,641.452C2216.16,641.452 2202.78,646.86 2206.32,653.946C2208.91,659.138 2220.19,649.632 2220.19,644.062" style="fill:none;stroke:rgb(255,0,0);stroke-width:1px;"/>
    <path d="M2251.22,485.723C2242.79,507.567 2227,586.429 2223.3,631.271" style="fill:none;stroke:rgb(255,0,0);stroke-width:1px;"/>
    <path d="M2194.18,607.587C2211.55,607.345 2235.93,605.926 2254.62,604.47" style="fill:none;stroke:rgb(255,0,0);stroke-width:1px;"/>
    <path d="M2201.62,584.086C2213.03,579.595 2228.43,574.569 2250.03,579.774" style="fill:none;stroke:rgb(255,0,0);stroke-width:1px;"/>
    <path d="M2194.98,572.584C2207.91,565.788 2227.75,562.72 2252.26,565.962" style="fill:none;stroke:rgb(255,0,0);stroke-width:1px;"/>
    <path d="M2319.11,564.021C2316.27,564.021 2309.87,580.909 2312.7,583.737C2314.37,585.409 2323.83,568.941 2321.6,565.402" style="fill:none;stroke:rgb(255,0,0);stroke-width:1px;"/>
    <path d="M2340.12,468.172C2341.38,494.457 2337.57,519.052 2335.63,539.734" style="fill:none;stroke:rgb(255,0,0);stroke-width:1px;"/>
    <path d="M2297,568.215C2307.32,560.354 2315.44,577.491 2335.22,571.814" style="fill:none;stroke:rgb(255,0,0);stroke-width:1px;"/>
    <path d="M1928.99,526.029C1959.74,522.734 2014,508.881 2043.13,499.342C2098.07,481.346 2159.47,478.967 2198.95,476.823C2230.23,475.124 2291,472.367 2329.84,473.941" style="fill:none;stroke:rgb(255,0,0);stroke-width:1px;"/>
    <path d="M2498.79,635.537C2493.86,632.057 2487.45,647.416 2489.16,649.21C2491.77,651.951 2503.64,635.655 2501.52,637.777" style="fill:none;stroke:rgb(255,0,0);stroke-width:1px;"/>
    <path d="M2531.17,476.599C2525.28,544.859 2498.15,638.502 2499.74,636.516" style="fill:none;stroke:rgb(255,0,0);stroke-width:1px;"/>
    <path d="M2467.82,568.05C2494.45,557.446 2524.38,563.994 2532.89,565.371" style="fill:none;stroke:rgb(255,0,0);stroke-width:1px;"/>
    <path d="M2473.93,587.872C2484.64,582.856 2508.74,584.513 2528.74,587.357" style="fill:none;stroke:rgb(255,0,0);stroke-width:1px;"/>
    <path d="M2481.05,604.421C2497.39,605.661 2512.57,604.182 2530.24,605.828" style="fill:none;stroke:rgb(255,0,0);stroke-width:1px;"/>
    <path d="M2595.06,559.927C2580.36,559.927 2577.61,582.22 2587.25,578.667C2591.92,576.947 2598,564.562 2598,562.342" style="fill:none;stroke:rgb(255,0,0);stroke-width:1px;"/>
    <path d="M2564.03,567.943C2579.31,567.554 2601.56,566.603 2617.02,568.157" style="fill:none;stroke:rgb(255,0,0);stroke-width:1px;"/>
    <path d="M2602.9,485.984C2602.13,503.112 2596.35,551.965 2594.62,551.965" style="fill:none;stroke:rgb(255,0,0);stroke-width:1px;"/>
    <path d="M2735.96,539.398C2732.08,539.398 2725.57,544.186 2724.89,550.468C2723.53,563.184 2738.78,549.19 2740.26,541.635" style="fill:none;stroke:rgb(255,0,0);stroke-width:1px;"/>
    <path d="M2715.86,629.866C2708.79,629.866 2704.33,644.186 2705.76,645.617C2711.63,651.491 2718.89,638.933 2720.58,631.77" style="fill:none;stroke:rgb(255,0,0);stroke-width:1px;"/>
    <path d="M2748.46,465.873C2747.87,491.925 2734.18,579.849 2718.18,633.971" style="fill:none;stroke:rgb(255,0,0);stroke-width:1px;"/>
    <path d="M2692.91,582.922C2705.76,579.038 2734.28,573.843 2755.26,575.999" style="fill:none;stroke:rgb(255,0,0);stroke-width:1px;"/>
    <path d="M2699.59,591.578C2713.18,590.037 2745.3,588.871 2757.74,588.871" style="fill:none;stroke:rgb(255,0,0);stroke-width:1px;"/>
    <path d="M2697.55,609.945C2707.92,610.982 2734.06,607.516 2754.23,606.351" style="fill:none;stroke:rgb(255,0,0);stroke-width:1px;"/>
    <path d="M2840.85,567.234C2832.02,567.234 2826.57,581.9 2829.75,583.83C2832.65,585.588 2840.38,577.061 2842.72,569.741" style="fill:none;stroke:rgb(255,0,0);stroke-width:1px;"/>
    <path d="M2862.01,458.494C2859.59,487.445 2851.84,531.35 2846.26,547.509" style="fill:none;stroke:rgb(255,0,0);stroke-width:1px;"/>
    <path d="M2814.86,572.175C2823.01,574.607 2847.2,573.417 2862.09,572.583" style="fill:none;stroke:rgb(255,0,0);stroke-width:1px;"/>
    <path d="M2536.84,506.324C2579.31,493.671 2676.98,470.771 2690.37,468.389C2720.52,463.021 2779.18,447.794 2869.23,437.587" style="fill:none;stroke:rgb(255,0,0);stroke-width:1px;"/>
    <path d="M2950.79,649.649C2943.35,598.425 3013.3,558.037 3048.47,551.002C3108.14,539.063 3108.69,603.33 3085.51,629.445" style="fill:none;stroke:rgb(255,0,0);stroke-width:1px;"/>
    <path d="M494.926,377.292C494.926,431.58 559.57,365.973 559.57,355.24" style="fill:none;stroke:rgb(255,0,0);stroke-width:1px;"/>
    <path d="M572.969,356.631C560.644,387.784 579.903,375.571 591.21,352.956C598.728,337.921 590.044,311.571 573.917,328.181C555.118,347.543 609.785,328.135 618.424,332.455C625.078,335.782 617.55,353.174 621.344,356.969C625.988,361.613 636.163,331.569 636.665,331.067C637.411,330.322 652.039,339.88 664.217,331.761" style="fill:none;stroke:rgb(255,0,0);stroke-width:1px;"/>
    <path d="M721.937,255.69C691.729,290.507 681.405,320.985 675.856,363.537" style="fill:none;stroke:rgb(255,0,0);stroke-width:1px;"/>
    <path d="M731.35,283.492C727.284,283.492 738.242,283.953 741.915,287.625C745.061,290.771 726.829,313.986 727.254,314.411C735.641,322.798 757.157,277.662 766.85,287.356C772.457,292.964 762.35,296.406 766.626,300.682C768.255,302.311 779.943,289.649 780.897,288.695C783.773,285.819 803.584,306.557 809.833,303.208C826.77,294.133 817.925,252.245 814.463,241.859C812.118,234.824 804.302,224.519 796.127,221.687C784.229,217.567 767.55,231.313 776.702,251.7" style="fill:none;stroke:rgb(255,0,0);stroke-width:1px;"/>
    <path d="M857.844,283.124C856.391,283.85 851.622,290.065 854.67,291.588C855.237,291.872 861.372,279.595 854.67,286.298" style="fill:none;stroke:black;stroke-width:1px;"/>
    <path d="M847.263,311.692L847.263,309.576" style="fill:none;stroke:black;stroke-width:1px;"/>
    <path d="M883.848,305.779C894.736,294.137 906.255,283.066 914.328,307.986C917,316.237 920.733,292.229 929.421,283.541" style="fill:none;stroke:rgb(255,0,0);stroke-width:1px;"/>
    <path d="M2705.28,406.944C2726.61,416.599 2733.43,392.832 2744.24,368.617C2756.99,340.034 2808.63,282.456 2753.95,378.394" style="fill:none;stroke:rgb(255,0,0);stroke-width:1px;"/>
    <path d="M2754.55,377.408C2767.16,365.568 2809.26,338.985 2799.82,329.55C2793.42,323.148 2760.19,355.426 2766.43,365.865C2776.51,382.74 2841.65,330.502 2841.65,332.558C2841.65,336.384 2825.72,356.457 2827.98,358.72C2828.56,359.299 2844.59,334.72 2853.66,328.56C2872.45,315.79 2865.08,345.434 2881.26,342.014C2902.56,337.51 2934.77,290.309 2912.61,301.002C2882.16,315.691 2910.13,321.169 2935.06,321.19C2946.33,321.199 2915.21,356.271 2919.61,360.662C2927.36,368.416 2955.23,349.333 2955.23,349.333C2955.23,349.333 2938.44,366.147 2944.35,368.786C2950.66,371.605 2964.28,351.382 2964.39,352.079C2965.7,360.429 2967.3,372.867 2996.32,363.845" style="fill:none;stroke:rgb(255,0,0);stroke-width:1px;"/>
    <path d="M2795.68,372.115C2775.48,387.446 2755.7,422.677 2732.67,445.395" style="fill:none;stroke:rgb(255,0,0);stroke-width:1px;"/>
    <path d="M2818.77,417.497C2820.11,417.497 2801.22,433.994 2798.32,431.097C2793.46,426.233 2819.25,403.129 2820.69,401.693C2826.67,395.718 2835.95,422.286 2840.42,424.416C2845.24,426.709 2861.55,412.769 2862.82,411.497C2864.06,410.251 2878.6,410.754 2889.55,413.34C2894.43,414.493 2891.69,416.493 2896.33,422.34C2901.54,428.905 2898.7,365.471 2893.58,361.534C2883.5,353.78 2858.94,365.978 2852.59,378.737" style="fill:none;stroke:rgb(255,0,0);stroke-width:1px;"/>
    <path d="M2991.37,412.229C3021.47,433.626 3045.62,417.622 3057.25,407.572" style="fill:none;stroke:rgb(255,0,0);stroke-width:1px;"/>
</svg>
