<?xml version="1.0" encoding="UTF-8" standalone="no"?>
<!DOCTYPE svg PUBLIC "-//W3C//DTD SVG 1.1//EN" "http://www.w3.org/Graphics/SVG/1.1/DTD/svg11.dtd">
<svg width="100%" height="100%" viewBox="0 0 7712 6000" version="1.1" xmlns="http://www.w3.org/2000/svg" xmlns:xlink="http://www.w3.org/1999/xlink" xml:space="preserve" xmlns:serif="http://www.serif.com/" style="fill-rule:evenodd;clip-rule:evenodd;stroke-linejoin:round;stroke-miterlimit:1.41421;">
    <g transform="matrix(1,0,0,1,-774.194,-779.032)">
        <g transform="matrix(366.667,0,0,366.667,1463.86,1804.84)">
            <path d="M1.076,-1C1.077,-1.002 1.073,-1.003 1.073,-1L0.853,-0.002L0.818,-0.002L0.597,-1C0.597,-1.001 0.596,-1.002 0.595,-1.002L0.56,-1.002C0.559,-1.002 0.558,-1.001 0.558,-1L0.337,-0.002L0.302,-0.002L0.082,-1C0.082,-1.003 0.078,-1.002 0.079,-1L0.299,0C0.299,0.001 0.3,0.002 0.3,0.002L0.339,0.002C0.34,0.002 0.341,0.001 0.341,0L0.562,-0.998L0.593,-0.998L0.814,0C0.814,0.001 0.815,0.002 0.816,0.002L0.854,0.002C0.855,0.002 0.856,0.001 0.856,0L1.076,-1Z" style="fill:none;fill-rule:nonzero;"/>
        </g>
        <g transform="matrix(366.667,0,0,366.667,1887,1804.84)">
            <path d="M0.57,-0.495C0.57,-0.497 0.566,-0.497 0.566,-0.495L0.566,-0.079C0.566,-0.02 0.602,0.002 0.645,0.002C0.648,0.002 0.648,-0.002 0.645,-0.002C0.603,-0.002 0.57,-0.023 0.57,-0.079L0.57,-0.087L0.57,-0.495ZM0.569,-0.086C0.571,-0.087 0.569,-0.09 0.567,-0.089C0.503,-0.031 0.427,0.008 0.341,0.008C0.27,0.008 0.154,-0.027 0.154,-0.173C0.154,-0.249 0.196,-0.298 0.258,-0.323C0.273,-0.329 0.304,-0.337 0.339,-0.345C0.375,-0.353 0.414,-0.361 0.447,-0.368C0.512,-0.382 0.57,-0.416 0.57,-0.494C0.57,-0.573 0.49,-0.668 0.369,-0.668C0.255,-0.668 0.202,-0.612 0.169,-0.561C0.168,-0.559 0.171,-0.557 0.173,-0.559C0.205,-0.609 0.257,-0.664 0.369,-0.664C0.488,-0.664 0.566,-0.571 0.566,-0.494C0.566,-0.418 0.511,-0.386 0.446,-0.372C0.414,-0.365 0.374,-0.357 0.338,-0.349C0.303,-0.341 0.272,-0.333 0.256,-0.327C0.193,-0.301 0.15,-0.251 0.15,-0.173C0.15,-0.024 0.269,0.012 0.341,0.012C0.429,0.012 0.505,-0.028 0.569,-0.086Z" style="fill-rule:nonzero;"/>
        </g>
        <g transform="matrix(366.667,0,0,366.667,2172.26,1804.84)">
            <path d="M0.537,-0.575C0.539,-0.573 0.542,-0.576 0.54,-0.578C0.484,-0.639 0.419,-0.668 0.338,-0.668C0.241,-0.668 0.142,-0.603 0.142,-0.499C0.142,-0.392 0.225,-0.364 0.311,-0.354C0.345,-0.35 0.378,-0.346 0.41,-0.341C0.513,-0.322 0.576,-0.281 0.576,-0.16C0.576,-0.047 0.456,0.008 0.357,0.008C0.255,0.008 0.189,-0.017 0.147,-0.114C0.145,-0.116 0.142,-0.115 0.143,-0.112C0.187,-0.013 0.254,0.012 0.357,0.012C0.456,0.012 0.58,-0.043 0.58,-0.16C0.58,-0.337 0.441,-0.342 0.311,-0.358C0.226,-0.368 0.146,-0.396 0.146,-0.499C0.146,-0.6 0.242,-0.664 0.338,-0.664C0.418,-0.664 0.482,-0.635 0.537,-0.575Z" style="fill-rule:nonzero;"/>
        </g>
        <g transform="matrix(366.667,0,0,366.667,2621.8,1804.84)">
            <path d="M0.189,0C0.189,0.003 0.193,0.003 0.193,0L0.193,-0.661C0.193,-0.664 0.188,-0.664 0.188,-0.661L0.189,0ZM0.188,-0.46C0.188,-0.457 0.193,-0.457 0.193,-0.46C0.193,-0.575 0.286,-0.664 0.396,-0.664C0.506,-0.664 0.599,-0.575 0.599,-0.46L0.599,0C0.599,0.003 0.603,0.003 0.603,0L0.603,-0.46C0.603,-0.577 0.508,-0.668 0.396,-0.668C0.284,-0.668 0.188,-0.577 0.188,-0.46ZM0.599,-0.46C0.599,-0.457 0.603,-0.457 0.603,-0.46C0.603,-0.575 0.697,-0.664 0.807,-0.664C0.917,-0.664 1.011,-0.575 1.011,-0.46L1.011,0C1.011,0.003 1.015,0.003 1.015,0L1.015,-0.46C1.015,-0.577 0.919,-0.668 0.807,-0.668C0.695,-0.668 0.599,-0.577 0.599,-0.46Z" style="fill-rule:nonzero;"/>
        </g>
        <g transform="matrix(366.667,0,0,366.667,3065.46,1804.84)">
            <path d="M0.203,-1C0.203,-1.003 0.198,-1.003 0.198,-1L0.198,-0.955C0.198,-0.952 0.203,-0.952 0.203,-0.955L0.203,-1ZM0.203,-0.661C0.203,-0.664 0.198,-0.664 0.198,-0.661L0.198,0C0.198,0.003 0.203,0.003 0.203,0L0.203,-0.661Z" style="fill-rule:nonzero;"/>
        </g>
        <g transform="matrix(366.667,0,0,366.667,3212.5,1804.84)">
            <path d="M0.603,-0.196C0.603,-0.199 0.599,-0.199 0.599,-0.196C0.599,-0.081 0.506,0.008 0.396,0.008C0.286,0.008 0.192,-0.081 0.192,-0.196L0.192,-0.46C0.192,-0.575 0.286,-0.664 0.396,-0.664C0.506,-0.664 0.599,-0.575 0.599,-0.46C0.599,-0.457 0.603,-0.457 0.603,-0.46C0.603,-0.577 0.508,-0.668 0.396,-0.668C0.284,-0.668 0.188,-0.577 0.188,-0.46L0.188,-0.196C0.188,-0.079 0.284,0.012 0.396,0.012C0.508,0.012 0.603,-0.079 0.603,-0.196Z" style="fill-rule:nonzero;"/>
        </g>
        <g transform="matrix(366.667,0,0,366.667,3488.23,1804.84)">
            <path d="M0.189,0C0.189,0.003 0.193,0.003 0.193,0L0.193,-1C0.193,-1.003 0.188,-1.003 0.188,-1L0.189,0ZM0.188,-0.46C0.188,-0.457 0.193,-0.457 0.193,-0.46C0.193,-0.575 0.286,-0.664 0.396,-0.664C0.506,-0.664 0.599,-0.575 0.599,-0.46L0.599,0C0.599,0.003 0.603,0.003 0.603,0L0.603,-0.46C0.603,-0.577 0.508,-0.668 0.396,-0.668C0.284,-0.668 0.188,-0.577 0.188,-0.46Z" style="fill-rule:nonzero;"/>
        </g>
        <g transform="matrix(366.667,0,0,366.667,3965.26,1804.84)">
            <path d="M0.57,-0.495C0.57,-0.497 0.566,-0.497 0.566,-0.495L0.566,-0.079C0.566,-0.02 0.602,0.002 0.645,0.002C0.648,0.002 0.648,-0.002 0.645,-0.002C0.603,-0.002 0.57,-0.023 0.57,-0.079L0.57,-0.087L0.57,-0.495ZM0.569,-0.086C0.571,-0.087 0.569,-0.09 0.567,-0.089C0.503,-0.031 0.427,0.008 0.341,0.008C0.27,0.008 0.154,-0.027 0.154,-0.173C0.154,-0.249 0.196,-0.298 0.258,-0.323C0.273,-0.329 0.304,-0.337 0.339,-0.345C0.375,-0.353 0.414,-0.361 0.447,-0.368C0.512,-0.382 0.57,-0.416 0.57,-0.494C0.57,-0.573 0.49,-0.668 0.369,-0.668C0.255,-0.668 0.202,-0.612 0.169,-0.561C0.168,-0.559 0.171,-0.557 0.173,-0.559C0.205,-0.609 0.257,-0.664 0.369,-0.664C0.488,-0.664 0.566,-0.571 0.566,-0.494C0.566,-0.418 0.511,-0.386 0.446,-0.372C0.414,-0.365 0.374,-0.357 0.338,-0.349C0.303,-0.341 0.272,-0.333 0.256,-0.327C0.193,-0.301 0.15,-0.251 0.15,-0.173C0.15,-0.024 0.269,0.012 0.341,0.012C0.429,0.012 0.505,-0.028 0.569,-0.086Z" style="fill-rule:nonzero;"/>
        </g>
        <g transform="matrix(366.667,0,0,366.667,4250.53,1804.84)">
            <path d="M0.189,0C0.189,0.003 0.193,0.003 0.193,0L0.193,-0.661C0.193,-0.664 0.188,-0.664 0.188,-0.661L0.189,0ZM0.188,-0.46C0.188,-0.457 0.193,-0.457 0.193,-0.46C0.193,-0.575 0.286,-0.664 0.396,-0.664C0.506,-0.664 0.599,-0.575 0.599,-0.46L0.599,0C0.599,0.003 0.603,0.003 0.603,0L0.603,-0.46C0.603,-0.577 0.508,-0.668 0.396,-0.668C0.284,-0.668 0.188,-0.577 0.188,-0.46Z" style="fill-rule:nonzero;"/>
        </g>
        <g transform="matrix(366.667,0,0,366.667,4544.23,1804.84)">
            <path d="M0.603,-0.661C0.603,-0.664 0.599,-0.664 0.599,-0.661L0.599,0.127C0.599,0.232 0.514,0.344 0.38,0.344C0.299,0.344 0.231,0.303 0.189,0.236C0.188,0.234 0.184,0.236 0.186,0.239C0.229,0.307 0.297,0.348 0.38,0.348C0.516,0.348 0.603,0.234 0.603,0.126L0.603,-0.661ZM0.603,-0.196C0.603,-0.199 0.599,-0.199 0.599,-0.196C0.599,-0.081 0.506,0.008 0.396,0.008C0.286,0.008 0.192,-0.081 0.192,-0.196L0.192,-0.46C0.192,-0.575 0.286,-0.664 0.396,-0.664C0.506,-0.664 0.599,-0.575 0.599,-0.46C0.599,-0.457 0.603,-0.457 0.603,-0.46C0.603,-0.577 0.508,-0.668 0.396,-0.668C0.284,-0.668 0.188,-0.577 0.188,-0.46L0.188,-0.196C0.188,-0.079 0.284,0.012 0.396,0.012C0.508,0.012 0.603,-0.079 0.603,-0.196Z" style="fill-rule:nonzero;"/>
        </g>
        <g transform="matrix(366.667,0,0,366.667,4835.36,1804.84)">
            <path d="M0.191,-0.332C0.188,-0.332 0.188,-0.328 0.191,-0.328L0.606,-0.328C0.608,-0.328 0.608,-0.329 0.608,-0.33L0.608,-0.46C0.608,-0.577 0.511,-0.668 0.396,-0.668C0.284,-0.668 0.188,-0.577 0.188,-0.46L0.188,-0.199C0.188,-0.079 0.284,0.012 0.396,0.012C0.521,0.012 0.566,-0.042 0.602,-0.095C0.603,-0.098 0.6,-0.1 0.598,-0.098C0.564,-0.044 0.519,0.008 0.396,0.008C0.286,0.008 0.192,-0.081 0.192,-0.199L0.192,-0.332L0.192,-0.46C0.192,-0.575 0.286,-0.664 0.396,-0.664C0.508,-0.664 0.604,-0.575 0.604,-0.46L0.604,-0.332L0.192,-0.332L0.191,-0.332Z" style="fill-rule:nonzero;"/>
        </g>
        <g transform="matrix(366.667,0,0,366.667,5130.9,1804.84)">
            <path d="M0.189,0C0.189,0.003 0.193,0.003 0.193,0L0.193,-1C0.193,-1.003 0.188,-1.003 0.188,-1L0.189,0ZM0.188,-0.46C0.188,-0.457 0.193,-0.457 0.193,-0.46C0.193,-0.575 0.286,-0.664 0.396,-0.664C0.506,-0.664 0.599,-0.575 0.599,-0.46L0.599,0C0.599,0.003 0.603,0.003 0.603,0L0.603,-0.46C0.603,-0.577 0.508,-0.668 0.396,-0.668C0.284,-0.668 0.188,-0.577 0.188,-0.46Z" style="fill-rule:nonzero;"/>
        </g>
        <g transform="matrix(366.667,0,0,366.667,5424.6,1804.84)">
            <path d="M0.141,-0.663C0.138,-0.663 0.138,-0.659 0.141,-0.659L0.327,-0.659C0.33,-0.659 0.33,-0.663 0.327,-0.663L0.141,-0.663ZM0.223,-0.879C0.223,-0.882 0.219,-0.882 0.219,-0.879L0.219,-0.109C0.219,-0.034 0.269,0.002 0.327,0.002C0.33,0.002 0.33,-0.002 0.327,-0.002C0.271,-0.002 0.223,-0.036 0.223,-0.109L0.223,-0.879Z" style="fill-rule:nonzero;"/>
        </g>
        <g transform="matrix(366.667,0,0,366.667,1463.86,2504.84)">
            <path d="M0.208,-1C0.208,-1.003 0.204,-1.003 0.204,-1L0.204,-0.953C0.204,-0.95 0.208,-0.95 0.208,-0.953L0.208,-1ZM0.208,-0.661C0.208,-0.664 0.204,-0.664 0.204,-0.661L0.204,0.234C0.204,0.287 0.154,0.323 0.1,0.332C0.098,0.332 0.098,0.336 0.101,0.335C0.156,0.327 0.208,0.289 0.208,0.234L0.208,-0.661Z" style="fill-rule:nonzero;"/>
        </g>
        <g transform="matrix(366.667,0,0,366.667,1612.73,2504.84)">
            <path d="M0.57,-0.495C0.57,-0.497 0.566,-0.497 0.566,-0.495L0.566,-0.079C0.566,-0.02 0.602,0.002 0.645,0.002C0.648,0.002 0.648,-0.002 0.645,-0.002C0.603,-0.002 0.57,-0.023 0.57,-0.079L0.57,-0.087L0.57,-0.495ZM0.569,-0.086C0.571,-0.087 0.569,-0.09 0.567,-0.089C0.503,-0.031 0.427,0.008 0.341,0.008C0.27,0.008 0.154,-0.027 0.154,-0.173C0.154,-0.249 0.196,-0.298 0.258,-0.323C0.273,-0.329 0.304,-0.337 0.339,-0.345C0.375,-0.353 0.414,-0.361 0.447,-0.368C0.512,-0.382 0.57,-0.416 0.57,-0.494C0.57,-0.573 0.49,-0.668 0.369,-0.668C0.255,-0.668 0.202,-0.612 0.169,-0.561C0.168,-0.559 0.171,-0.557 0.173,-0.559C0.205,-0.609 0.257,-0.664 0.369,-0.664C0.488,-0.664 0.566,-0.571 0.566,-0.494C0.566,-0.418 0.511,-0.386 0.446,-0.372C0.414,-0.365 0.374,-0.357 0.338,-0.349C0.303,-0.341 0.272,-0.333 0.256,-0.327C0.193,-0.301 0.15,-0.251 0.15,-0.173C0.15,-0.024 0.269,0.012 0.341,0.012C0.429,0.012 0.505,-0.028 0.569,-0.086Z" style="fill-rule:nonzero;"/>
        </g>
        <g transform="matrix(366.667,0,0,366.667,2081.33,2504.84)">
            <path d="M0.6,0C0.6,0.003 0.604,0.003 0.604,0L0.604,-1C0.604,-1.003 0.6,-1.003 0.6,-1L0.6,0ZM0.604,-0.196C0.604,-0.199 0.6,-0.199 0.6,-0.196C0.6,-0.081 0.506,0.008 0.396,0.008C0.287,0.008 0.193,-0.081 0.193,-0.196L0.193,-0.46C0.193,-0.575 0.287,-0.664 0.396,-0.664C0.506,-0.664 0.6,-0.575 0.6,-0.46C0.6,-0.457 0.604,-0.457 0.604,-0.46C0.604,-0.577 0.509,-0.668 0.396,-0.668C0.284,-0.668 0.189,-0.577 0.189,-0.46L0.189,-0.196C0.189,-0.079 0.284,0.012 0.396,0.012C0.509,0.012 0.604,-0.079 0.604,-0.196Z" style="fill-rule:nonzero;"/>
        </g>
        <g transform="matrix(366.667,0,0,366.667,2371.36,2504.84)">
            <path d="M0.603,-0.661C0.603,-0.664 0.599,-0.664 0.599,-0.661L0.599,0C0.599,0.003 0.603,0.003 0.603,0L0.603,-0.661ZM0.603,-0.196C0.603,-0.199 0.599,-0.199 0.599,-0.196C0.599,-0.081 0.506,0.008 0.396,0.008C0.286,0.008 0.192,-0.081 0.192,-0.196L0.192,-0.661C0.192,-0.664 0.188,-0.664 0.188,-0.661L0.188,-0.196C0.188,-0.079 0.284,0.012 0.396,0.012C0.508,0.012 0.603,-0.079 0.603,-0.196Z" style="fill-rule:nonzero;"/>
        </g>
        <g transform="matrix(366.667,0,0,366.667,2851.7,2504.84)">
            <path d="M0.173,-1C0.173,-1.003 0.168,-1.003 0.168,-1L0.168,-0.109C0.168,-0.034 0.218,0.002 0.276,0.002C0.279,0.002 0.279,-0.002 0.276,-0.002C0.22,-0.002 0.172,-0.036 0.172,-0.109L0.173,-1Z" style="fill-rule:nonzero;"/>
        </g>
        <g transform="matrix(366.667,0,0,366.667,3008.26,2504.84)">
            <path d="M0.203,-1C0.203,-1.003 0.198,-1.003 0.198,-1L0.198,-0.955C0.198,-0.952 0.203,-0.952 0.203,-0.955L0.203,-1ZM0.203,-0.661C0.203,-0.664 0.198,-0.664 0.198,-0.661L0.198,0C0.198,0.003 0.203,0.003 0.203,0L0.203,-0.661Z" style="fill-rule:nonzero;"/>
        </g>
        <g transform="matrix(366.667,0,0,366.667,3155.3,2504.84)">
            <path d="M0.191,-0.332C0.188,-0.332 0.188,-0.328 0.191,-0.328L0.606,-0.328C0.608,-0.328 0.608,-0.329 0.608,-0.33L0.608,-0.46C0.608,-0.577 0.511,-0.668 0.396,-0.668C0.284,-0.668 0.188,-0.577 0.188,-0.46L0.188,-0.199C0.188,-0.079 0.284,0.012 0.396,0.012C0.521,0.012 0.566,-0.042 0.602,-0.095C0.603,-0.098 0.6,-0.1 0.598,-0.098C0.564,-0.044 0.519,0.008 0.396,0.008C0.286,0.008 0.192,-0.081 0.192,-0.199L0.192,-0.332L0.192,-0.46C0.192,-0.575 0.286,-0.664 0.396,-0.664C0.508,-0.664 0.604,-0.575 0.604,-0.46L0.604,-0.332L0.192,-0.332L0.191,-0.332Z" style="fill-rule:nonzero;"/>
        </g>
        <g transform="matrix(366.667,0,0,366.667,3450.83,2504.84)">
            <path d="M0.189,0C0.189,0.003 0.193,0.003 0.193,0L0.193,-1C0.193,-1.003 0.188,-1.003 0.188,-1L0.189,0ZM0.193,-0.196C0.193,-0.199 0.188,-0.199 0.188,-0.196C0.188,-0.079 0.284,0.012 0.396,0.012C0.508,0.012 0.603,-0.079 0.603,-0.196L0.603,-0.46C0.603,-0.577 0.508,-0.668 0.396,-0.668C0.284,-0.668 0.188,-0.577 0.188,-0.46C0.188,-0.457 0.193,-0.457 0.193,-0.46C0.193,-0.575 0.286,-0.664 0.396,-0.664C0.506,-0.664 0.599,-0.575 0.599,-0.46L0.599,-0.196C0.599,-0.081 0.506,0.008 0.396,0.008C0.286,0.008 0.192,-0.081 0.192,-0.196L0.193,-0.196Z" style="fill-rule:nonzero;"/>
        </g>
        <g transform="matrix(366.667,0,0,366.667,3740.86,2504.84)">
            <path d="M0.191,-0.332C0.188,-0.332 0.188,-0.328 0.191,-0.328L0.606,-0.328C0.608,-0.328 0.608,-0.329 0.608,-0.33L0.608,-0.46C0.608,-0.577 0.511,-0.668 0.396,-0.668C0.284,-0.668 0.188,-0.577 0.188,-0.46L0.188,-0.199C0.188,-0.079 0.284,0.012 0.396,0.012C0.521,0.012 0.566,-0.042 0.602,-0.095C0.603,-0.098 0.6,-0.1 0.598,-0.098C0.564,-0.044 0.519,0.008 0.396,0.008C0.286,0.008 0.192,-0.081 0.192,-0.199L0.192,-0.332L0.192,-0.46C0.192,-0.575 0.286,-0.664 0.396,-0.664C0.508,-0.664 0.604,-0.575 0.604,-0.46L0.604,-0.332L0.192,-0.332L0.191,-0.332Z" style="fill-rule:nonzero;"/>
        </g>
        <g transform="matrix(366.667,0,0,366.667,4036.4,2504.84)">
            <path d="M0.163,-0.661C0.163,-0.664 0.158,-0.664 0.158,-0.661L0.158,0C0.158,0.003 0.163,0.003 0.163,0L0.163,-0.661ZM0.159,-0.533C0.158,-0.53 0.162,-0.529 0.163,-0.531C0.182,-0.604 0.24,-0.664 0.321,-0.664C0.366,-0.664 0.395,-0.638 0.413,-0.599C0.414,-0.597 0.418,-0.598 0.417,-0.601C0.398,-0.641 0.368,-0.668 0.321,-0.668C0.238,-0.668 0.178,-0.606 0.159,-0.533Z" style="fill-rule:nonzero;"/>
        </g>
        <g transform="matrix(366.667,0,0,366.667,4423.23,2504.84)">
            <path d="M0.209,0C0.209,0.003 0.213,0.003 0.213,0L0.213,-1C0.213,-1.003 0.208,-1.003 0.208,-1L0.209,0ZM0.716,-1C0.716,-1.003 0.711,-1.003 0.711,-1L0.711,0C0.711,0.003 0.716,0.003 0.716,0L0.716,-1ZM0.21,-0.515C0.208,-0.515 0.208,-0.511 0.211,-0.511L0.714,-0.511C0.716,-0.511 0.716,-0.515 0.713,-0.515L0.21,-0.515Z" style="fill-rule:nonzero;"/>
        </g>
        <g transform="matrix(366.667,0,0,366.667,4761.66,2504.84)">
            <path d="M0.203,-1C0.203,-1.003 0.198,-1.003 0.198,-1L0.198,-0.955C0.198,-0.952 0.203,-0.952 0.203,-0.955L0.203,-1ZM0.203,-0.661C0.203,-0.664 0.198,-0.664 0.198,-0.661L0.198,0C0.198,0.003 0.203,0.003 0.203,0L0.203,-0.661Z" style="fill-rule:nonzero;"/>
        </g>
        <g transform="matrix(366.667,0,0,366.667,4908.7,2504.84)">
            <path d="M0.189,0C0.189,0.003 0.193,0.003 0.193,0L0.193,-0.661C0.193,-0.664 0.188,-0.664 0.188,-0.661L0.189,0ZM0.188,-0.46C0.188,-0.457 0.193,-0.457 0.193,-0.46C0.193,-0.575 0.286,-0.664 0.396,-0.664C0.506,-0.664 0.599,-0.575 0.599,-0.46L0.599,0C0.599,0.003 0.603,0.003 0.603,0L0.603,-0.46C0.603,-0.577 0.508,-0.668 0.396,-0.668C0.284,-0.668 0.188,-0.577 0.188,-0.46ZM0.599,-0.46C0.599,-0.457 0.603,-0.457 0.603,-0.46C0.603,-0.575 0.697,-0.664 0.807,-0.664C0.917,-0.664 1.011,-0.575 1.011,-0.46L1.011,0C1.011,0.003 1.015,0.003 1.015,0L1.015,-0.46C1.015,-0.577 0.919,-0.668 0.807,-0.668C0.695,-0.668 0.599,-0.577 0.599,-0.46Z" style="fill-rule:nonzero;"/>
        </g>
        <g transform="matrix(366.667,0,0,366.667,5352.36,2504.84)">
            <path d="M0.189,0C0.189,0.003 0.193,0.003 0.193,0L0.193,-0.661C0.193,-0.664 0.188,-0.664 0.188,-0.661L0.189,0ZM0.188,-0.46C0.188,-0.457 0.193,-0.457 0.193,-0.46C0.193,-0.575 0.286,-0.664 0.396,-0.664C0.506,-0.664 0.599,-0.575 0.599,-0.46L0.599,0C0.599,0.003 0.603,0.003 0.603,0L0.603,-0.46C0.603,-0.577 0.508,-0.668 0.396,-0.668C0.284,-0.668 0.188,-0.577 0.188,-0.46ZM0.599,-0.46C0.599,-0.457 0.603,-0.457 0.603,-0.46C0.603,-0.575 0.697,-0.664 0.807,-0.664C0.917,-0.664 1.011,-0.575 1.011,-0.46L1.011,0C1.011,0.003 1.015,0.003 1.015,0L1.015,-0.46C1.015,-0.577 0.919,-0.668 0.807,-0.668C0.695,-0.668 0.599,-0.577 0.599,-0.46Z" style="fill-rule:nonzero;"/>
        </g>
        <g transform="matrix(366.667,0,0,366.667,5796.03,2504.84)">
            <path d="M0.191,-0.332C0.188,-0.332 0.188,-0.328 0.191,-0.328L0.606,-0.328C0.608,-0.328 0.608,-0.329 0.608,-0.33L0.608,-0.46C0.608,-0.577 0.511,-0.668 0.396,-0.668C0.284,-0.668 0.188,-0.577 0.188,-0.46L0.188,-0.199C0.188,-0.079 0.284,0.012 0.396,0.012C0.521,0.012 0.566,-0.042 0.602,-0.095C0.603,-0.098 0.6,-0.1 0.598,-0.098C0.564,-0.044 0.519,0.008 0.396,0.008C0.286,0.008 0.192,-0.081 0.192,-0.199L0.192,-0.332L0.192,-0.46C0.192,-0.575 0.286,-0.664 0.396,-0.664C0.508,-0.664 0.604,-0.575 0.604,-0.46L0.604,-0.332L0.192,-0.332L0.191,-0.332Z" style="fill-rule:nonzero;"/>
        </g>
        <g transform="matrix(366.667,0,0,366.667,6091.56,2504.84)">
            <path d="M0.173,-1C0.173,-1.003 0.168,-1.003 0.168,-1L0.168,-0.109C0.168,-0.034 0.218,0.002 0.276,0.002C0.279,0.002 0.279,-0.002 0.276,-0.002C0.22,-0.002 0.172,-0.036 0.172,-0.109L0.173,-1Z" style="fill-rule:nonzero;"/>
        </g>
        <g transform="matrix(366.667,0,0,366.667,1463.86,3204.84)">
            <path d="M0.189,0C0.189,0.003 0.193,0.003 0.193,0L0.193,-0.661C0.193,-0.664 0.188,-0.664 0.188,-0.661L0.189,0ZM0.188,-0.46C0.188,-0.457 0.193,-0.457 0.193,-0.46C0.193,-0.575 0.286,-0.664 0.396,-0.664C0.506,-0.664 0.599,-0.575 0.599,-0.46L0.599,0C0.599,0.003 0.603,0.003 0.603,0L0.603,-0.46C0.603,-0.577 0.508,-0.668 0.396,-0.668C0.284,-0.668 0.188,-0.577 0.188,-0.46ZM0.599,-0.46C0.599,-0.457 0.603,-0.457 0.603,-0.46C0.603,-0.575 0.697,-0.664 0.807,-0.664C0.917,-0.664 1.011,-0.575 1.011,-0.46L1.011,0C1.011,0.003 1.015,0.003 1.015,0L1.015,-0.46C1.015,-0.577 0.919,-0.668 0.807,-0.668C0.695,-0.668 0.599,-0.577 0.599,-0.46Z" style="fill-rule:nonzero;"/>
        </g>
        <g transform="matrix(366.667,0,0,366.667,1907.53,3204.84)">
            <path d="M0.191,-0.332C0.188,-0.332 0.188,-0.328 0.191,-0.328L0.606,-0.328C0.608,-0.328 0.608,-0.329 0.608,-0.33L0.608,-0.46C0.608,-0.577 0.511,-0.668 0.396,-0.668C0.284,-0.668 0.188,-0.577 0.188,-0.46L0.188,-0.199C0.188,-0.079 0.284,0.012 0.396,0.012C0.521,0.012 0.566,-0.042 0.602,-0.095C0.603,-0.098 0.6,-0.1 0.598,-0.098C0.564,-0.044 0.519,0.008 0.396,0.008C0.286,0.008 0.192,-0.081 0.192,-0.199L0.192,-0.332L0.192,-0.46C0.192,-0.575 0.286,-0.664 0.396,-0.664C0.508,-0.664 0.604,-0.575 0.604,-0.46L0.604,-0.332L0.192,-0.332L0.191,-0.332Z" style="fill-rule:nonzero;"/>
        </g>
        <g transform="matrix(366.667,0,0,366.667,2203.06,3204.84)">
            <path d="M0.203,-1C0.203,-1.003 0.198,-1.003 0.198,-1L0.198,-0.955C0.198,-0.952 0.203,-0.952 0.203,-0.955L0.203,-1ZM0.203,-0.661C0.203,-0.664 0.198,-0.664 0.198,-0.661L0.198,0C0.198,0.003 0.203,0.003 0.203,0L0.203,-0.661Z" style="fill-rule:nonzero;"/>
        </g>
        <g transform="matrix(366.667,0,0,366.667,2350.1,3204.84)">
            <path d="M0.189,0C0.189,0.003 0.193,0.003 0.193,0L0.193,-0.661C0.193,-0.664 0.188,-0.664 0.188,-0.661L0.189,0ZM0.188,-0.46C0.188,-0.457 0.193,-0.457 0.193,-0.46C0.193,-0.575 0.286,-0.664 0.396,-0.664C0.506,-0.664 0.599,-0.575 0.599,-0.46L0.599,0C0.599,0.003 0.603,0.003 0.603,0L0.603,-0.46C0.603,-0.577 0.508,-0.668 0.396,-0.668C0.284,-0.668 0.188,-0.577 0.188,-0.46Z" style="fill-rule:nonzero;"/>
        </g>
        <g transform="matrix(366.667,0,0,366.667,2827.13,3204.84)">
            <path d="M0.457,-0.518C0.456,-0.521 0.452,-0.519 0.453,-0.517L0.71,0.001C0.711,0.003 0.715,0.001 0.714,-0.001L0.457,-0.518ZM0.208,0C0.208,0.003 0.213,0.003 0.213,0L0.213,-0.52L0.213,-0.998L0.471,-0.998C0.602,-0.998 0.71,-0.895 0.71,-0.759C0.71,-0.623 0.602,-0.52 0.471,-0.52L0.212,-0.52L0.21,-0.52C0.208,-0.52 0.208,-0.516 0.211,-0.516L0.471,-0.516C0.604,-0.516 0.714,-0.62 0.714,-0.759C0.714,-0.898 0.604,-1.002 0.471,-1.002L0.21,-1.002C0.209,-1.002 0.209,-1.001 0.209,-1L0.208,0Z" style="fill-rule:nonzero;"/>
        </g>
        <g transform="matrix(366.667,0,0,366.667,3146.86,3204.84)">
            <path d="M0.191,-0.332C0.188,-0.332 0.188,-0.328 0.191,-0.328L0.606,-0.328C0.608,-0.328 0.608,-0.329 0.608,-0.33L0.608,-0.46C0.608,-0.577 0.511,-0.668 0.396,-0.668C0.284,-0.668 0.188,-0.577 0.188,-0.46L0.188,-0.199C0.188,-0.079 0.284,0.012 0.396,0.012C0.521,0.012 0.566,-0.042 0.602,-0.095C0.603,-0.098 0.6,-0.1 0.598,-0.098C0.564,-0.044 0.519,0.008 0.396,0.008C0.286,0.008 0.192,-0.081 0.192,-0.199L0.192,-0.332L0.192,-0.46C0.192,-0.575 0.286,-0.664 0.396,-0.664C0.508,-0.664 0.604,-0.575 0.604,-0.46L0.604,-0.332L0.192,-0.332L0.191,-0.332Z" style="fill-rule:nonzero;"/>
        </g>
        <g transform="matrix(366.667,0,0,366.667,3442.4,3204.84)">
            <path d="M0.203,-1C0.203,-1.003 0.198,-1.003 0.198,-1L0.198,-0.955C0.198,-0.952 0.203,-0.952 0.203,-0.955L0.203,-1ZM0.203,-0.661C0.203,-0.664 0.198,-0.664 0.198,-0.661L0.198,0C0.198,0.003 0.203,0.003 0.203,0L0.203,-0.661Z" style="fill-rule:nonzero;"/>
        </g>
        <g transform="matrix(366.667,0,0,366.667,3589.43,3204.84)">
            <path d="M0.603,-0.196C0.603,-0.199 0.599,-0.199 0.599,-0.196C0.599,-0.081 0.506,0.008 0.396,0.008C0.286,0.008 0.192,-0.081 0.192,-0.196L0.192,-0.46C0.192,-0.575 0.286,-0.664 0.396,-0.664C0.506,-0.664 0.599,-0.575 0.599,-0.46C0.599,-0.457 0.603,-0.457 0.603,-0.46C0.603,-0.577 0.508,-0.668 0.396,-0.668C0.284,-0.668 0.188,-0.577 0.188,-0.46L0.188,-0.196C0.188,-0.079 0.284,0.012 0.396,0.012C0.508,0.012 0.603,-0.079 0.603,-0.196Z" style="fill-rule:nonzero;"/>
        </g>
        <g transform="matrix(366.667,0,0,366.667,3865.16,3204.84)">
            <path d="M0.189,0C0.189,0.003 0.193,0.003 0.193,0L0.193,-1C0.193,-1.003 0.188,-1.003 0.188,-1L0.189,0ZM0.188,-0.46C0.188,-0.457 0.193,-0.457 0.193,-0.46C0.193,-0.575 0.286,-0.664 0.396,-0.664C0.506,-0.664 0.599,-0.575 0.599,-0.46L0.599,0C0.599,0.003 0.603,0.003 0.603,0L0.603,-0.46C0.603,-0.577 0.508,-0.668 0.396,-0.668C0.284,-0.668 0.188,-0.577 0.188,-0.46Z" style="fill-rule:nonzero;"/>
        </g>
        <g transform="matrix(366.667,0,0,366.667,4342.2,3204.84)">
            <path d="M0.203,-1C0.203,-1.003 0.198,-1.003 0.198,-1L0.198,-0.955C0.198,-0.952 0.203,-0.952 0.203,-0.955L0.203,-1ZM0.203,-0.661C0.203,-0.664 0.198,-0.664 0.198,-0.661L0.198,0C0.198,0.003 0.203,0.003 0.203,0L0.203,-0.661Z" style="fill-rule:nonzero;"/>
        </g>
        <g transform="matrix(366.667,0,0,366.667,4489.23,3204.84)">
            <path d="M0.537,-0.575C0.539,-0.573 0.542,-0.576 0.54,-0.578C0.484,-0.639 0.419,-0.668 0.338,-0.668C0.241,-0.668 0.142,-0.603 0.142,-0.499C0.142,-0.392 0.225,-0.364 0.311,-0.354C0.345,-0.35 0.378,-0.346 0.41,-0.341C0.513,-0.322 0.576,-0.281 0.576,-0.16C0.576,-0.047 0.456,0.008 0.357,0.008C0.255,0.008 0.189,-0.017 0.147,-0.114C0.145,-0.116 0.142,-0.115 0.143,-0.112C0.187,-0.013 0.254,0.012 0.357,0.012C0.456,0.012 0.58,-0.043 0.58,-0.16C0.58,-0.337 0.441,-0.342 0.311,-0.358C0.226,-0.368 0.146,-0.396 0.146,-0.499C0.146,-0.6 0.242,-0.664 0.338,-0.664C0.418,-0.664 0.482,-0.635 0.537,-0.575Z" style="fill-rule:nonzero;"/>
        </g>
        <g transform="matrix(366.667,0,0,366.667,4755.43,3204.84)">
            <path d="M0.141,-0.663C0.138,-0.663 0.138,-0.659 0.141,-0.659L0.327,-0.659C0.33,-0.659 0.33,-0.663 0.327,-0.663L0.141,-0.663ZM0.223,-0.879C0.223,-0.882 0.219,-0.882 0.219,-0.879L0.219,-0.109C0.219,-0.034 0.269,0.002 0.327,0.002C0.33,0.002 0.33,-0.002 0.327,-0.002C0.271,-0.002 0.223,-0.036 0.223,-0.109L0.223,-0.879Z" style="fill-rule:nonzero;"/>
        </g>
        <g transform="matrix(366.667,0,0,366.667,5110,3204.84)">
            <path d="M0.203,-1C0.203,-1.003 0.198,-1.003 0.198,-1L0.198,-0.955C0.198,-0.952 0.203,-0.952 0.203,-0.955L0.203,-1ZM0.203,-0.661C0.203,-0.664 0.198,-0.664 0.198,-0.661L0.198,0C0.198,0.003 0.203,0.003 0.203,0L0.203,-0.661Z" style="fill-rule:nonzero;"/>
        </g>
        <g transform="matrix(366.667,0,0,366.667,5257.03,3204.84)">
            <path d="M0.189,0C0.189,0.003 0.193,0.003 0.193,0L0.193,-0.661C0.193,-0.664 0.188,-0.664 0.188,-0.661L0.189,0ZM0.188,-0.46C0.188,-0.457 0.193,-0.457 0.193,-0.46C0.193,-0.575 0.286,-0.664 0.396,-0.664C0.506,-0.664 0.599,-0.575 0.599,-0.46L0.599,0C0.599,0.003 0.603,0.003 0.603,0L0.603,-0.46C0.603,-0.577 0.508,-0.668 0.396,-0.668C0.284,-0.668 0.188,-0.577 0.188,-0.46Z" style="fill-rule:nonzero;"/>
        </g>
        <g transform="matrix(366.667,0,0,366.667,5734.06,3204.84)">
            <path d="M0.6,0C0.6,0.003 0.604,0.003 0.604,0L0.604,-1C0.604,-1.003 0.6,-1.003 0.6,-1L0.6,0ZM0.604,-0.196C0.604,-0.199 0.6,-0.199 0.6,-0.196C0.6,-0.081 0.506,0.008 0.396,0.008C0.287,0.008 0.193,-0.081 0.193,-0.196L0.193,-0.46C0.193,-0.575 0.287,-0.664 0.396,-0.664C0.506,-0.664 0.6,-0.575 0.6,-0.46C0.6,-0.457 0.604,-0.457 0.604,-0.46C0.604,-0.577 0.509,-0.668 0.396,-0.668C0.284,-0.668 0.189,-0.577 0.189,-0.46L0.189,-0.196C0.189,-0.079 0.284,0.012 0.396,0.012C0.509,0.012 0.604,-0.079 0.604,-0.196Z" style="fill-rule:nonzero;"/>
        </g>
        <g transform="matrix(366.667,0,0,366.667,6024.1,3204.84)">
            <path d="M0.191,-0.332C0.188,-0.332 0.188,-0.328 0.191,-0.328L0.606,-0.328C0.608,-0.328 0.608,-0.329 0.608,-0.33L0.608,-0.46C0.608,-0.577 0.511,-0.668 0.396,-0.668C0.284,-0.668 0.188,-0.577 0.188,-0.46L0.188,-0.199C0.188,-0.079 0.284,0.012 0.396,0.012C0.521,0.012 0.566,-0.042 0.602,-0.095C0.603,-0.098 0.6,-0.1 0.598,-0.098C0.564,-0.044 0.519,0.008 0.396,0.008C0.286,0.008 0.192,-0.081 0.192,-0.199L0.192,-0.332L0.192,-0.46C0.192,-0.575 0.286,-0.664 0.396,-0.664C0.508,-0.664 0.604,-0.575 0.604,-0.46L0.604,-0.332L0.192,-0.332L0.191,-0.332Z" style="fill-rule:nonzero;"/>
        </g>
        <g transform="matrix(366.667,0,0,366.667,6319.63,3204.84)">
            <path d="M0.163,-0.661C0.163,-0.664 0.158,-0.664 0.158,-0.661L0.158,0C0.158,0.003 0.163,0.003 0.163,0L0.163,-0.661ZM0.159,-0.533C0.158,-0.53 0.162,-0.529 0.163,-0.531C0.182,-0.604 0.24,-0.664 0.321,-0.664C0.366,-0.664 0.395,-0.638 0.413,-0.599C0.414,-0.597 0.418,-0.598 0.417,-0.601C0.398,-0.641 0.368,-0.668 0.321,-0.668C0.238,-0.668 0.178,-0.606 0.159,-0.533Z" style="fill-rule:nonzero;"/>
        </g>
        <g transform="matrix(366.667,0,0,366.667,6706.46,3204.84)">
            <path d="M0.213,-1C0.213,-1.003 0.208,-1.003 0.208,-1L0.208,0C0.208,0.001 0.209,0.002 0.211,0.002L0.634,0.002C0.637,0.002 0.637,-0.002 0.634,-0.002L0.212,-0.002L0.213,-1Z" style="fill-rule:nonzero;"/>
        </g>
        <g transform="matrix(366.667,0,0,366.667,6982.93,3204.84)">
            <path d="M0.603,-0.661C0.603,-0.664 0.599,-0.664 0.599,-0.661L0.599,0C0.599,0.003 0.603,0.003 0.603,0L0.603,-0.661ZM0.603,-0.196C0.603,-0.199 0.599,-0.199 0.599,-0.196C0.599,-0.081 0.506,0.008 0.396,0.008C0.286,0.008 0.192,-0.081 0.192,-0.196L0.192,-0.661C0.192,-0.664 0.188,-0.664 0.188,-0.661L0.188,-0.196C0.188,-0.079 0.284,0.012 0.396,0.012C0.508,0.012 0.603,-0.079 0.603,-0.196Z" style="fill-rule:nonzero;"/>
        </g>
        <g transform="matrix(366.667,0,0,366.667,7279.93,3204.84)">
            <path d="M0.131,-0.663C0.128,-0.663 0.128,-0.659 0.131,-0.659L0.346,-0.659C0.349,-0.659 0.349,-0.663 0.346,-0.663L0.131,-0.663ZM0.226,0C0.226,0.003 0.23,0.003 0.23,0L0.23,-0.876C0.23,-0.949 0.277,-0.983 0.334,-0.983C0.336,-0.983 0.336,-0.987 0.333,-0.987C0.276,-0.987 0.226,-0.951 0.226,-0.876L0.226,0Z" style="fill-rule:nonzero;"/>
        </g>
        <g transform="matrix(366.667,0,0,366.667,7457.76,3204.84)">
            <path d="M0.141,-0.663C0.138,-0.663 0.138,-0.659 0.141,-0.659L0.327,-0.659C0.33,-0.659 0.33,-0.663 0.327,-0.663L0.141,-0.663ZM0.223,-0.879C0.223,-0.882 0.219,-0.882 0.219,-0.879L0.219,-0.109C0.219,-0.034 0.269,0.002 0.327,0.002C0.33,0.002 0.33,-0.002 0.327,-0.002C0.271,-0.002 0.223,-0.036 0.223,-0.109L0.223,-0.879Z" style="fill-rule:nonzero;"/>
        </g>
        <g transform="matrix(366.667,0,0,366.667,1463.86,3904.84)">
            <path d="M0.082,-0.662C0.082,-0.664 0.078,-0.663 0.079,-0.66L0.259,0.001L0.26,0.002L0.291,0.002C0.292,0.002 0.293,0.001 0.293,0.001L0.479,-0.659L0.508,-0.659L0.694,0.001C0.694,0.001 0.695,0.002 0.696,0.002L0.727,0.002C0.728,0.002 0.729,0.001 0.729,0.001L0.909,-0.66C0.91,-0.663 0.906,-0.664 0.905,-0.662L0.725,-0.002L0.698,-0.002L0.512,-0.662C0.512,-0.662 0.511,-0.663 0.51,-0.663L0.477,-0.663L0.476,-0.662L0.29,-0.002L0.262,-0.002L0.082,-0.662Z" style="fill-rule:nonzero;"/>
        </g>
        <g transform="matrix(366.667,0,0,366.667,1833.46,3904.84)">
            <path d="M0.203,-1C0.203,-1.003 0.198,-1.003 0.198,-1L0.198,-0.955C0.198,-0.952 0.203,-0.952 0.203,-0.955L0.203,-1ZM0.203,-0.661C0.203,-0.664 0.198,-0.664 0.198,-0.661L0.198,0C0.198,0.003 0.203,0.003 0.203,0L0.203,-0.661Z" style="fill-rule:nonzero;"/>
        </g>
        <g transform="matrix(366.667,0,0,366.667,1980.5,3904.84)">
            <path d="M0.191,-0.332C0.188,-0.332 0.188,-0.328 0.191,-0.328L0.606,-0.328C0.608,-0.328 0.608,-0.329 0.608,-0.33L0.608,-0.46C0.608,-0.577 0.511,-0.668 0.396,-0.668C0.284,-0.668 0.188,-0.577 0.188,-0.46L0.188,-0.199C0.188,-0.079 0.284,0.012 0.396,0.012C0.521,0.012 0.566,-0.042 0.602,-0.095C0.603,-0.098 0.6,-0.1 0.598,-0.098C0.564,-0.044 0.519,0.008 0.396,0.008C0.286,0.008 0.192,-0.081 0.192,-0.199L0.192,-0.332L0.192,-0.46C0.192,-0.575 0.286,-0.664 0.396,-0.664C0.508,-0.664 0.604,-0.575 0.604,-0.46L0.604,-0.332L0.192,-0.332L0.191,-0.332Z" style="fill-rule:nonzero;"/>
        </g>
        <g transform="matrix(366.667,0,0,366.667,2459.36,3904.84)">
            <path d="M0.6,0C0.6,0.003 0.604,0.003 0.604,0L0.604,-1C0.604,-1.003 0.6,-1.003 0.6,-1L0.6,0ZM0.604,-0.196C0.604,-0.199 0.6,-0.199 0.6,-0.196C0.6,-0.081 0.506,0.008 0.396,0.008C0.287,0.008 0.193,-0.081 0.193,-0.196L0.193,-0.46C0.193,-0.575 0.287,-0.664 0.396,-0.664C0.506,-0.664 0.6,-0.575 0.6,-0.46C0.6,-0.457 0.604,-0.457 0.604,-0.46C0.604,-0.577 0.509,-0.668 0.396,-0.668C0.284,-0.668 0.189,-0.577 0.189,-0.46L0.189,-0.196C0.189,-0.079 0.284,0.012 0.396,0.012C0.509,0.012 0.604,-0.079 0.604,-0.196Z" style="fill-rule:nonzero;"/>
        </g>
        <g transform="matrix(366.667,0,0,366.667,2749.4,3904.84)">
            <path d="M0.191,-0.332C0.188,-0.332 0.188,-0.328 0.191,-0.328L0.606,-0.328C0.608,-0.328 0.608,-0.329 0.608,-0.33L0.608,-0.46C0.608,-0.577 0.511,-0.668 0.396,-0.668C0.284,-0.668 0.188,-0.577 0.188,-0.46L0.188,-0.199C0.188,-0.079 0.284,0.012 0.396,0.012C0.521,0.012 0.566,-0.042 0.602,-0.095C0.603,-0.098 0.6,-0.1 0.598,-0.098C0.564,-0.044 0.519,0.008 0.396,0.008C0.286,0.008 0.192,-0.081 0.192,-0.199L0.192,-0.332L0.192,-0.46C0.192,-0.575 0.286,-0.664 0.396,-0.664C0.508,-0.664 0.604,-0.575 0.604,-0.46L0.604,-0.332L0.192,-0.332L0.191,-0.332Z" style="fill-rule:nonzero;"/>
        </g>
        <g transform="matrix(366.667,0,0,366.667,3044.93,3904.84)">
            <path d="M0.163,-0.661C0.163,-0.664 0.158,-0.664 0.158,-0.661L0.158,0C0.158,0.003 0.163,0.003 0.163,0L0.163,-0.661ZM0.159,-0.533C0.158,-0.53 0.162,-0.529 0.163,-0.531C0.182,-0.604 0.24,-0.664 0.321,-0.664C0.366,-0.664 0.395,-0.638 0.413,-0.599C0.414,-0.597 0.418,-0.598 0.417,-0.601C0.398,-0.641 0.368,-0.668 0.321,-0.668C0.238,-0.668 0.178,-0.606 0.159,-0.533Z" style="fill-rule:nonzero;"/>
        </g>
        <g transform="matrix(366.667,0,0,366.667,3431.76,3904.84)">
            <path d="M1.076,-1C1.077,-1.002 1.073,-1.003 1.073,-1L0.853,-0.002L0.818,-0.002L0.597,-1C0.597,-1.001 0.596,-1.002 0.595,-1.002L0.56,-1.002C0.559,-1.002 0.558,-1.001 0.558,-1L0.337,-0.002L0.302,-0.002L0.082,-1C0.082,-1.003 0.078,-1.002 0.079,-1L0.299,0C0.299,0.001 0.3,0.002 0.3,0.002L0.339,0.002C0.34,0.002 0.341,0.001 0.341,0L0.562,-0.998L0.593,-0.998L0.814,0C0.814,0.001 0.815,0.002 0.816,0.002L0.854,0.002C0.855,0.002 0.856,0.001 0.856,0L1.076,-1Z" style="fill-rule:nonzero;"/>
        </g>
        <g transform="matrix(366.667,0,0,366.667,3854.9,3904.84)">
            <path d="M0.203,-1C0.203,-1.003 0.198,-1.003 0.198,-1L0.198,-0.955C0.198,-0.952 0.203,-0.952 0.203,-0.955L0.203,-1ZM0.203,-0.661C0.203,-0.664 0.198,-0.664 0.198,-0.661L0.198,0C0.198,0.003 0.203,0.003 0.203,0L0.203,-0.661Z" style="fill-rule:nonzero;"/>
        </g>
        <g transform="matrix(366.667,0,0,366.667,4001.93,3904.84)">
            <path d="M0.189,0C0.189,0.003 0.193,0.003 0.193,0L0.193,-0.661C0.193,-0.664 0.188,-0.664 0.188,-0.661L0.189,0ZM0.188,-0.46C0.188,-0.457 0.193,-0.457 0.193,-0.46C0.193,-0.575 0.286,-0.664 0.396,-0.664C0.506,-0.664 0.599,-0.575 0.599,-0.46L0.599,0C0.599,0.003 0.603,0.003 0.603,0L0.603,-0.46C0.603,-0.577 0.508,-0.668 0.396,-0.668C0.284,-0.668 0.188,-0.577 0.188,-0.46Z" style="fill-rule:nonzero;"/>
        </g>
        <g transform="matrix(366.667,0,0,366.667,4295.63,3904.84)">
            <path d="M0.6,0C0.6,0.003 0.604,0.003 0.604,0L0.604,-1C0.604,-1.003 0.6,-1.003 0.6,-1L0.6,0ZM0.604,-0.196C0.604,-0.199 0.6,-0.199 0.6,-0.196C0.6,-0.081 0.506,0.008 0.396,0.008C0.287,0.008 0.193,-0.081 0.193,-0.196L0.193,-0.46C0.193,-0.575 0.287,-0.664 0.396,-0.664C0.506,-0.664 0.6,-0.575 0.6,-0.46C0.6,-0.457 0.604,-0.457 0.604,-0.46C0.604,-0.577 0.509,-0.668 0.396,-0.668C0.284,-0.668 0.189,-0.577 0.189,-0.46L0.189,-0.196C0.189,-0.079 0.284,0.012 0.396,0.012C0.509,0.012 0.604,-0.079 0.604,-0.196Z" style="fill-rule:nonzero;"/>
        </g>
        <g transform="matrix(366.667,0,0,366.667,4769,3904.84)">
            <path d="M0.396,-0.668C0.284,-0.668 0.188,-0.577 0.188,-0.46L0.188,-0.196C0.188,-0.079 0.284,0.012 0.396,0.012C0.508,0.012 0.603,-0.079 0.603,-0.196L0.603,-0.46C0.603,-0.577 0.508,-0.668 0.396,-0.668ZM0.396,-0.664C0.506,-0.664 0.599,-0.575 0.599,-0.46L0.599,-0.196C0.599,-0.081 0.506,0.008 0.396,0.008C0.286,0.008 0.192,-0.081 0.192,-0.196L0.192,-0.46C0.192,-0.575 0.286,-0.664 0.396,-0.664Z" style="fill-rule:nonzero;"/>
        </g>
        <g transform="matrix(366.667,0,0,366.667,5059.03,3904.84)">
            <path d="M0.131,-0.663C0.128,-0.663 0.128,-0.659 0.131,-0.659L0.346,-0.659C0.349,-0.659 0.349,-0.663 0.346,-0.663L0.131,-0.663ZM0.226,0C0.226,0.003 0.23,0.003 0.23,0L0.23,-0.876C0.23,-0.949 0.277,-0.983 0.334,-0.983C0.336,-0.983 0.336,-0.987 0.333,-0.987C0.276,-0.987 0.226,-0.951 0.226,-0.876L0.226,0Z" style="fill-rule:nonzero;"/>
        </g>
        <g transform="matrix(366.667,0,0,366.667,5236.86,3904.84)">
            <path d="M0.141,-0.663C0.138,-0.663 0.138,-0.659 0.141,-0.659L0.327,-0.659C0.33,-0.659 0.33,-0.663 0.327,-0.663L0.141,-0.663ZM0.223,-0.879C0.223,-0.882 0.219,-0.882 0.219,-0.879L0.219,-0.109C0.219,-0.034 0.269,0.002 0.327,0.002C0.33,0.002 0.33,-0.002 0.327,-0.002C0.271,-0.002 0.223,-0.036 0.223,-0.109L0.223,-0.879Z" style="fill-rule:nonzero;"/>
        </g>
        <g transform="matrix(366.667,0,0,366.667,1463.86,4604.84)">
            <path d="M0.537,-0.575C0.539,-0.573 0.542,-0.576 0.54,-0.578C0.484,-0.639 0.419,-0.668 0.338,-0.668C0.241,-0.668 0.142,-0.603 0.142,-0.499C0.142,-0.392 0.225,-0.364 0.311,-0.354C0.345,-0.35 0.378,-0.346 0.41,-0.341C0.513,-0.322 0.576,-0.281 0.576,-0.16C0.576,-0.047 0.456,0.008 0.357,0.008C0.255,0.008 0.189,-0.017 0.147,-0.114C0.145,-0.116 0.142,-0.115 0.143,-0.112C0.187,-0.013 0.254,0.012 0.357,0.012C0.456,0.012 0.58,-0.043 0.58,-0.16C0.58,-0.337 0.441,-0.342 0.311,-0.358C0.226,-0.368 0.146,-0.396 0.146,-0.499C0.146,-0.6 0.242,-0.664 0.338,-0.664C0.418,-0.664 0.482,-0.635 0.537,-0.575Z" style="fill-rule:nonzero;"/>
        </g>
        <g transform="matrix(366.667,0,0,366.667,1730.06,4604.84)">
            <path d="M0.396,-0.668C0.284,-0.668 0.188,-0.577 0.188,-0.46L0.188,-0.196C0.188,-0.079 0.284,0.012 0.396,0.012C0.508,0.012 0.603,-0.079 0.603,-0.196L0.603,-0.46C0.603,-0.577 0.508,-0.668 0.396,-0.668ZM0.396,-0.664C0.506,-0.664 0.599,-0.575 0.599,-0.46L0.599,-0.196C0.599,-0.081 0.506,0.008 0.396,0.008C0.286,0.008 0.192,-0.081 0.192,-0.196L0.192,-0.46C0.192,-0.575 0.286,-0.664 0.396,-0.664Z" style="fill-rule:nonzero;"/>
        </g>
        <g transform="matrix(366.667,0,0,366.667,2203.43,4604.84)">
            <path d="M0.082,-0.662C0.082,-0.664 0.078,-0.663 0.079,-0.66L0.259,0.001L0.26,0.002L0.291,0.002C0.292,0.002 0.293,0.001 0.293,0.001L0.479,-0.659L0.508,-0.659L0.694,0.001C0.694,0.001 0.695,0.002 0.696,0.002L0.727,0.002C0.728,0.002 0.729,0.001 0.729,0.001L0.909,-0.66C0.91,-0.663 0.906,-0.664 0.905,-0.662L0.725,-0.002L0.698,-0.002L0.512,-0.662C0.512,-0.662 0.511,-0.663 0.51,-0.663L0.477,-0.663L0.476,-0.662L0.29,-0.002L0.262,-0.002L0.082,-0.662Z" style="fill-rule:nonzero;"/>
        </g>
        <g transform="matrix(366.667,0,0,366.667,2573.03,4604.84)">
            <path d="M0.203,-1C0.203,-1.003 0.198,-1.003 0.198,-1L0.198,-0.955C0.198,-0.952 0.203,-0.952 0.203,-0.955L0.203,-1ZM0.203,-0.661C0.203,-0.664 0.198,-0.664 0.198,-0.661L0.198,0C0.198,0.003 0.203,0.003 0.203,0L0.203,-0.661Z" style="fill-rule:nonzero;"/>
        </g>
        <g transform="matrix(366.667,0,0,366.667,2720.06,4604.84)">
            <path d="M0.163,-0.661C0.163,-0.664 0.158,-0.664 0.158,-0.661L0.158,0C0.158,0.003 0.163,0.003 0.163,0L0.163,-0.661ZM0.159,-0.533C0.158,-0.53 0.162,-0.529 0.163,-0.531C0.182,-0.604 0.24,-0.664 0.321,-0.664C0.366,-0.664 0.395,-0.638 0.413,-0.599C0.414,-0.597 0.418,-0.598 0.417,-0.601C0.398,-0.641 0.368,-0.668 0.321,-0.668C0.238,-0.668 0.178,-0.606 0.159,-0.533Z" style="fill-rule:nonzero;"/>
        </g>
        <g transform="matrix(366.667,0,0,366.667,2923.56,4604.84)">
            <path d="M0.189,0C0.189,0.003 0.193,0.003 0.193,0L0.193,-1C0.193,-1.003 0.188,-1.003 0.188,-1L0.189,0ZM0.193,-0.196C0.193,-0.199 0.188,-0.199 0.188,-0.196C0.188,-0.079 0.284,0.012 0.396,0.012C0.508,0.012 0.603,-0.079 0.603,-0.196L0.603,-0.46C0.603,-0.577 0.508,-0.668 0.396,-0.668C0.284,-0.668 0.188,-0.577 0.188,-0.46C0.188,-0.457 0.193,-0.457 0.193,-0.46C0.193,-0.575 0.286,-0.664 0.396,-0.664C0.506,-0.664 0.599,-0.575 0.599,-0.46L0.599,-0.196C0.599,-0.081 0.506,0.008 0.396,0.008C0.286,0.008 0.192,-0.081 0.192,-0.196L0.193,-0.196Z" style="fill-rule:nonzero;"/>
        </g>
        <g transform="matrix(366.667,0,0,366.667,3213.6,4604.84)">
            <path d="M0.191,-0.332C0.188,-0.332 0.188,-0.328 0.191,-0.328L0.606,-0.328C0.608,-0.328 0.608,-0.329 0.608,-0.33L0.608,-0.46C0.608,-0.577 0.511,-0.668 0.396,-0.668C0.284,-0.668 0.188,-0.577 0.188,-0.46L0.188,-0.199C0.188,-0.079 0.284,0.012 0.396,0.012C0.521,0.012 0.566,-0.042 0.602,-0.095C0.603,-0.098 0.6,-0.1 0.598,-0.098C0.564,-0.044 0.519,0.008 0.396,0.008C0.286,0.008 0.192,-0.081 0.192,-0.199L0.192,-0.332L0.192,-0.46C0.192,-0.575 0.286,-0.664 0.396,-0.664C0.508,-0.664 0.604,-0.575 0.604,-0.46L0.604,-0.332L0.192,-0.332L0.191,-0.332Z" style="fill-rule:nonzero;"/>
        </g>
        <g transform="matrix(366.667,0,0,366.667,3509.13,4604.84)">
            <path d="M0.173,-1C0.173,-1.003 0.168,-1.003 0.168,-1L0.168,-0.109C0.168,-0.034 0.218,0.002 0.276,0.002C0.279,0.002 0.279,-0.002 0.276,-0.002C0.22,-0.002 0.172,-0.036 0.172,-0.109L0.173,-1Z" style="fill-rule:nonzero;"/>
        </g>
        <g transform="matrix(366.667,0,0,366.667,3665.7,4604.84)">
            <path d="M0.189,0C0.189,0.003 0.193,0.003 0.193,0L0.193,-0.661C0.193,-0.664 0.188,-0.664 0.188,-0.661L0.189,0ZM0.188,-0.46C0.188,-0.457 0.193,-0.457 0.193,-0.46C0.193,-0.575 0.286,-0.664 0.396,-0.664C0.506,-0.664 0.599,-0.575 0.599,-0.46L0.599,0C0.599,0.003 0.603,0.003 0.603,0L0.603,-0.46C0.603,-0.577 0.508,-0.668 0.396,-0.668C0.284,-0.668 0.188,-0.577 0.188,-0.46Z" style="fill-rule:nonzero;"/>
        </g>
        <g transform="matrix(366.667,0,0,366.667,4142.73,4604.84)">
            <path d="M0.6,0C0.6,0.003 0.604,0.003 0.604,0L0.604,-1C0.604,-1.003 0.6,-1.003 0.6,-1L0.6,0ZM0.604,-0.196C0.604,-0.199 0.6,-0.199 0.6,-0.196C0.6,-0.081 0.506,0.008 0.396,0.008C0.287,0.008 0.193,-0.081 0.193,-0.196L0.193,-0.46C0.193,-0.575 0.287,-0.664 0.396,-0.664C0.506,-0.664 0.6,-0.575 0.6,-0.46C0.6,-0.457 0.604,-0.457 0.604,-0.46C0.604,-0.577 0.509,-0.668 0.396,-0.668C0.284,-0.668 0.189,-0.577 0.189,-0.46L0.189,-0.196C0.189,-0.079 0.284,0.012 0.396,0.012C0.509,0.012 0.604,-0.079 0.604,-0.196Z" style="fill-rule:nonzero;"/>
        </g>
        <g transform="matrix(366.667,0,0,366.667,4432.76,4604.84)">
            <path d="M0.203,-1C0.203,-1.003 0.198,-1.003 0.198,-1L0.198,-0.955C0.198,-0.952 0.203,-0.952 0.203,-0.955L0.203,-1ZM0.203,-0.661C0.203,-0.664 0.198,-0.664 0.198,-0.661L0.198,0C0.198,0.003 0.203,0.003 0.203,0L0.203,-0.661Z" style="fill-rule:nonzero;"/>
        </g>
        <g transform="matrix(366.667,0,0,366.667,4579.8,4604.84)">
            <path d="M0.191,-0.332C0.188,-0.332 0.188,-0.328 0.191,-0.328L0.606,-0.328C0.608,-0.328 0.608,-0.329 0.608,-0.33L0.608,-0.46C0.608,-0.577 0.511,-0.668 0.396,-0.668C0.284,-0.668 0.188,-0.577 0.188,-0.46L0.188,-0.199C0.188,-0.079 0.284,0.012 0.396,0.012C0.521,0.012 0.566,-0.042 0.602,-0.095C0.603,-0.098 0.6,-0.1 0.598,-0.098C0.564,-0.044 0.519,0.008 0.396,0.008C0.286,0.008 0.192,-0.081 0.192,-0.199L0.192,-0.332L0.192,-0.46C0.192,-0.575 0.286,-0.664 0.396,-0.664C0.508,-0.664 0.604,-0.575 0.604,-0.46L0.604,-0.332L0.192,-0.332L0.191,-0.332Z" style="fill-rule:nonzero;"/>
        </g>
        <g transform="matrix(366.667,0,0,366.667,5058.66,4604.84)">
            <path d="M0.151,-1.002C0.148,-1.002 0.148,-0.998 0.151,-0.998L0.596,-0.998C0.599,-0.998 0.599,-1.002 0.596,-1.002L0.151,-1.002ZM0.375,-1C0.375,-1.003 0.371,-1.003 0.371,-1L0.371,0C0.371,0.003 0.376,0.003 0.376,0L0.375,-1Z" style="fill-rule:nonzero;"/>
        </g>
        <g transform="matrix(366.667,0,0,366.667,5325.23,4604.84)">
            <path d="M0.396,-0.668C0.284,-0.668 0.188,-0.577 0.188,-0.46L0.188,-0.196C0.188,-0.079 0.284,0.012 0.396,0.012C0.508,0.012 0.603,-0.079 0.603,-0.196L0.603,-0.46C0.603,-0.577 0.508,-0.668 0.396,-0.668ZM0.396,-0.664C0.506,-0.664 0.599,-0.575 0.599,-0.46L0.599,-0.196C0.599,-0.081 0.506,0.008 0.396,0.008C0.286,0.008 0.192,-0.081 0.192,-0.196L0.192,-0.46C0.192,-0.575 0.286,-0.664 0.396,-0.664Z" style="fill-rule:nonzero;"/>
        </g>
        <g transform="matrix(366.667,0,0,366.667,5615.26,4604.84)">
            <path d="M0.191,-0.332C0.188,-0.332 0.188,-0.328 0.191,-0.328L0.606,-0.328C0.608,-0.328 0.608,-0.329 0.608,-0.33L0.608,-0.46C0.608,-0.577 0.511,-0.668 0.396,-0.668C0.284,-0.668 0.188,-0.577 0.188,-0.46L0.188,-0.199C0.188,-0.079 0.284,0.012 0.396,0.012C0.521,0.012 0.566,-0.042 0.602,-0.095C0.603,-0.098 0.6,-0.1 0.598,-0.098C0.564,-0.044 0.519,0.008 0.396,0.008C0.286,0.008 0.192,-0.081 0.192,-0.199L0.192,-0.332L0.192,-0.46C0.192,-0.575 0.286,-0.664 0.396,-0.664C0.508,-0.664 0.604,-0.575 0.604,-0.46L0.604,-0.332L0.192,-0.332L0.191,-0.332Z" style="fill-rule:nonzero;"/>
        </g>
        <g transform="matrix(366.667,0,0,366.667,5910.8,4604.84)">
            <path d="M0.189,0C0.189,0.003 0.193,0.003 0.193,0L0.193,-0.661C0.193,-0.664 0.188,-0.664 0.188,-0.661L0.189,0ZM0.188,-0.46C0.188,-0.457 0.193,-0.457 0.193,-0.46C0.193,-0.575 0.286,-0.664 0.396,-0.664C0.506,-0.664 0.599,-0.575 0.599,-0.46L0.599,0C0.599,0.003 0.603,0.003 0.603,0L0.603,-0.46C0.603,-0.577 0.508,-0.668 0.396,-0.668C0.284,-0.668 0.188,-0.577 0.188,-0.46Z" style="fill-rule:nonzero;"/>
        </g>
        <g transform="matrix(366.667,0,0,366.667,6204.5,4604.84)">
            <path d="M0.191,-0.332C0.188,-0.332 0.188,-0.328 0.191,-0.328L0.606,-0.328C0.608,-0.328 0.608,-0.329 0.608,-0.33L0.608,-0.46C0.608,-0.577 0.511,-0.668 0.396,-0.668C0.284,-0.668 0.188,-0.577 0.188,-0.46L0.188,-0.199C0.188,-0.079 0.284,0.012 0.396,0.012C0.521,0.012 0.566,-0.042 0.602,-0.095C0.603,-0.098 0.6,-0.1 0.598,-0.098C0.564,-0.044 0.519,0.008 0.396,0.008C0.286,0.008 0.192,-0.081 0.192,-0.199L0.192,-0.332L0.192,-0.46C0.192,-0.575 0.286,-0.664 0.396,-0.664C0.508,-0.664 0.604,-0.575 0.604,-0.46L0.604,-0.332L0.192,-0.332L0.191,-0.332Z" style="fill-rule:nonzero;"/>
        </g>
        <g transform="matrix(366.667,0,0,366.667,1463.86,5304.84)">
            <path d="M0.537,-0.575C0.539,-0.573 0.542,-0.576 0.54,-0.578C0.484,-0.639 0.419,-0.668 0.338,-0.668C0.241,-0.668 0.142,-0.603 0.142,-0.499C0.142,-0.392 0.225,-0.364 0.311,-0.354C0.345,-0.35 0.378,-0.346 0.41,-0.341C0.513,-0.322 0.576,-0.281 0.576,-0.16C0.576,-0.047 0.456,0.008 0.357,0.008C0.255,0.008 0.189,-0.017 0.147,-0.114C0.145,-0.116 0.142,-0.115 0.143,-0.112C0.187,-0.013 0.254,0.012 0.357,0.012C0.456,0.012 0.58,-0.043 0.58,-0.16C0.58,-0.337 0.441,-0.342 0.311,-0.358C0.226,-0.368 0.146,-0.396 0.146,-0.499C0.146,-0.6 0.242,-0.664 0.338,-0.664C0.418,-0.664 0.482,-0.635 0.537,-0.575Z" style="fill-rule:nonzero;"/>
        </g>
        <g transform="matrix(366.667,0,0,366.667,1730.06,5304.84)">
            <path d="M0.396,-0.668C0.284,-0.668 0.188,-0.577 0.188,-0.46L0.188,-0.196C0.188,-0.079 0.284,0.012 0.396,0.012C0.508,0.012 0.603,-0.079 0.603,-0.196L0.603,-0.46C0.603,-0.577 0.508,-0.668 0.396,-0.668ZM0.396,-0.664C0.506,-0.664 0.599,-0.575 0.599,-0.46L0.599,-0.196C0.599,-0.081 0.506,0.008 0.396,0.008C0.286,0.008 0.192,-0.081 0.192,-0.196L0.192,-0.46C0.192,-0.575 0.286,-0.664 0.396,-0.664Z" style="fill-rule:nonzero;"/>
        </g>
        <g transform="matrix(366.667,0,0,366.667,2203.43,5304.84)">
            <path d="M0.396,-0.668C0.284,-0.668 0.188,-0.577 0.188,-0.46L0.188,-0.196C0.188,-0.079 0.284,0.012 0.396,0.012C0.508,0.012 0.603,-0.079 0.603,-0.196L0.603,-0.46C0.603,-0.577 0.508,-0.668 0.396,-0.668ZM0.396,-0.664C0.506,-0.664 0.599,-0.575 0.599,-0.46L0.599,-0.196C0.599,-0.081 0.506,0.008 0.396,0.008C0.286,0.008 0.192,-0.081 0.192,-0.196L0.192,-0.46C0.192,-0.575 0.286,-0.664 0.396,-0.664Z" style="fill-rule:nonzero;"/>
        </g>
        <g transform="matrix(366.667,0,0,366.667,2493.46,5304.84)">
            <path d="M0.131,-0.663C0.128,-0.663 0.128,-0.659 0.131,-0.659L0.346,-0.659C0.349,-0.659 0.349,-0.663 0.346,-0.663L0.131,-0.663ZM0.226,0C0.226,0.003 0.23,0.003 0.23,0L0.23,-0.876C0.23,-0.949 0.277,-0.983 0.334,-0.983C0.336,-0.983 0.336,-0.987 0.333,-0.987C0.276,-0.987 0.226,-0.951 0.226,-0.876L0.226,0Z" style="fill-rule:nonzero;"/>
        </g>
        <g transform="matrix(366.667,0,0,366.667,2671.3,5304.84)">
            <path d="M0.141,-0.663C0.138,-0.663 0.138,-0.659 0.141,-0.659L0.327,-0.659C0.33,-0.659 0.33,-0.663 0.327,-0.663L0.141,-0.663ZM0.223,-0.879C0.223,-0.882 0.219,-0.882 0.219,-0.879L0.219,-0.109C0.219,-0.034 0.269,0.002 0.327,0.002C0.33,0.002 0.33,-0.002 0.327,-0.002C0.271,-0.002 0.223,-0.036 0.223,-0.109L0.223,-0.879Z" style="fill-rule:nonzero;"/>
        </g>
        <g transform="matrix(366.667,0,0,366.667,3025.86,5304.84)">
            <path d="M0.082,-0.662C0.082,-0.664 0.078,-0.663 0.079,-0.66L0.259,0.001L0.26,0.002L0.291,0.002C0.292,0.002 0.293,0.001 0.293,0.001L0.479,-0.659L0.508,-0.659L0.694,0.001C0.694,0.001 0.695,0.002 0.696,0.002L0.727,0.002C0.728,0.002 0.729,0.001 0.729,0.001L0.909,-0.66C0.91,-0.663 0.906,-0.664 0.905,-0.662L0.725,-0.002L0.698,-0.002L0.512,-0.662C0.512,-0.662 0.511,-0.663 0.51,-0.663L0.477,-0.663L0.476,-0.662L0.29,-0.002L0.262,-0.002L0.082,-0.662Z" style="fill-rule:nonzero;"/>
        </g>
        <g transform="matrix(366.667,0,0,366.667,3395.46,5304.84)">
            <path d="M0.203,-1C0.203,-1.003 0.198,-1.003 0.198,-1L0.198,-0.955C0.198,-0.952 0.203,-0.952 0.203,-0.955L0.203,-1ZM0.203,-0.661C0.203,-0.664 0.198,-0.664 0.198,-0.661L0.198,0C0.198,0.003 0.203,0.003 0.203,0L0.203,-0.661Z" style="fill-rule:nonzero;"/>
        </g>
        <g transform="matrix(366.667,0,0,366.667,3542.5,5304.84)">
            <path d="M0.163,-0.661C0.163,-0.664 0.158,-0.664 0.158,-0.661L0.158,0C0.158,0.003 0.163,0.003 0.163,0L0.163,-0.661ZM0.159,-0.533C0.158,-0.53 0.162,-0.529 0.163,-0.531C0.182,-0.604 0.24,-0.664 0.321,-0.664C0.366,-0.664 0.395,-0.638 0.413,-0.599C0.414,-0.597 0.418,-0.598 0.417,-0.601C0.398,-0.641 0.368,-0.668 0.321,-0.668C0.238,-0.668 0.178,-0.606 0.159,-0.533Z" style="fill-rule:nonzero;"/>
        </g>
        <g transform="matrix(366.667,0,0,366.667,3746,5304.84)">
            <path d="M0.189,0C0.189,0.003 0.193,0.003 0.193,0L0.193,-1C0.193,-1.003 0.188,-1.003 0.188,-1L0.189,0ZM0.193,-0.196C0.193,-0.199 0.188,-0.199 0.188,-0.196C0.188,-0.079 0.284,0.012 0.396,0.012C0.508,0.012 0.603,-0.079 0.603,-0.196L0.603,-0.46C0.603,-0.577 0.508,-0.668 0.396,-0.668C0.284,-0.668 0.188,-0.577 0.188,-0.46C0.188,-0.457 0.193,-0.457 0.193,-0.46C0.193,-0.575 0.286,-0.664 0.396,-0.664C0.506,-0.664 0.599,-0.575 0.599,-0.46L0.599,-0.196C0.599,-0.081 0.506,0.008 0.396,0.008C0.286,0.008 0.192,-0.081 0.192,-0.196L0.193,-0.196Z" style="fill-rule:nonzero;"/>
        </g>
        <g transform="matrix(366.667,0,0,366.667,4036.03,5304.84)">
            <path d="M0.191,-0.332C0.188,-0.332 0.188,-0.328 0.191,-0.328L0.606,-0.328C0.608,-0.328 0.608,-0.329 0.608,-0.33L0.608,-0.46C0.608,-0.577 0.511,-0.668 0.396,-0.668C0.284,-0.668 0.188,-0.577 0.188,-0.46L0.188,-0.199C0.188,-0.079 0.284,0.012 0.396,0.012C0.521,0.012 0.566,-0.042 0.602,-0.095C0.603,-0.098 0.6,-0.1 0.598,-0.098C0.564,-0.044 0.519,0.008 0.396,0.008C0.286,0.008 0.192,-0.081 0.192,-0.199L0.192,-0.332L0.192,-0.46C0.192,-0.575 0.286,-0.664 0.396,-0.664C0.508,-0.664 0.604,-0.575 0.604,-0.46L0.604,-0.332L0.192,-0.332L0.191,-0.332Z" style="fill-rule:nonzero;"/>
        </g>
        <g transform="matrix(366.667,0,0,366.667,4331.56,5304.84)">
            <path d="M0.173,-1C0.173,-1.003 0.168,-1.003 0.168,-1L0.168,-0.109C0.168,-0.034 0.218,0.002 0.276,0.002C0.279,0.002 0.279,-0.002 0.276,-0.002C0.22,-0.002 0.172,-0.036 0.172,-0.109L0.173,-1Z" style="fill-rule:nonzero;"/>
        </g>
        <g transform="matrix(366.667,0,0,366.667,4488.13,5304.84)">
            <path d="M0.141,-0.663C0.138,-0.663 0.138,-0.659 0.141,-0.659L0.327,-0.659C0.33,-0.659 0.33,-0.663 0.327,-0.663L0.141,-0.663ZM0.223,-0.879C0.223,-0.882 0.219,-0.882 0.219,-0.879L0.219,-0.109C0.219,-0.034 0.269,0.002 0.327,0.002C0.33,0.002 0.33,-0.002 0.327,-0.002C0.271,-0.002 0.223,-0.036 0.223,-0.109L0.223,-0.879Z" style="fill-rule:nonzero;"/>
        </g>
        <g transform="matrix(366.667,0,0,366.667,4659.36,5304.84)">
            <path d="M0.537,-0.575C0.539,-0.573 0.542,-0.576 0.54,-0.578C0.484,-0.639 0.419,-0.668 0.338,-0.668C0.241,-0.668 0.142,-0.603 0.142,-0.499C0.142,-0.392 0.225,-0.364 0.311,-0.354C0.345,-0.35 0.378,-0.346 0.41,-0.341C0.513,-0.322 0.576,-0.281 0.576,-0.16C0.576,-0.047 0.456,0.008 0.357,0.008C0.255,0.008 0.189,-0.017 0.147,-0.114C0.145,-0.116 0.142,-0.115 0.143,-0.112C0.187,-0.013 0.254,0.012 0.357,0.012C0.456,0.012 0.58,-0.043 0.58,-0.16C0.58,-0.337 0.441,-0.342 0.311,-0.358C0.226,-0.368 0.146,-0.396 0.146,-0.499C0.146,-0.6 0.242,-0.664 0.338,-0.664C0.418,-0.664 0.482,-0.635 0.537,-0.575Z" style="fill-rule:nonzero;"/>
        </g>
        <g transform="matrix(366.667,0,0,366.667,1463.86,6004.84)">
            <path d="M0.57,-0.495C0.57,-0.497 0.566,-0.497 0.566,-0.495L0.566,-0.079C0.566,-0.02 0.602,0.002 0.645,0.002C0.648,0.002 0.648,-0.002 0.645,-0.002C0.603,-0.002 0.57,-0.023 0.57,-0.079L0.57,-0.087L0.57,-0.495ZM0.569,-0.086C0.571,-0.087 0.569,-0.09 0.567,-0.089C0.503,-0.031 0.427,0.008 0.341,0.008C0.27,0.008 0.154,-0.027 0.154,-0.173C0.154,-0.249 0.196,-0.298 0.258,-0.323C0.273,-0.329 0.304,-0.337 0.339,-0.345C0.375,-0.353 0.414,-0.361 0.447,-0.368C0.512,-0.382 0.57,-0.416 0.57,-0.494C0.57,-0.573 0.49,-0.668 0.369,-0.668C0.255,-0.668 0.202,-0.612 0.169,-0.561C0.168,-0.559 0.171,-0.557 0.173,-0.559C0.205,-0.609 0.257,-0.664 0.369,-0.664C0.488,-0.664 0.566,-0.571 0.566,-0.494C0.566,-0.418 0.511,-0.386 0.446,-0.372C0.414,-0.365 0.374,-0.357 0.338,-0.349C0.303,-0.341 0.272,-0.333 0.256,-0.327C0.193,-0.301 0.15,-0.251 0.15,-0.173C0.15,-0.024 0.269,0.012 0.341,0.012C0.429,0.012 0.505,-0.028 0.569,-0.086Z" style="fill-rule:nonzero;"/>
        </g>
        <g transform="matrix(366.667,0,0,366.667,1749.13,6004.84)">
            <path d="M0.603,-0.661C0.603,-0.664 0.599,-0.664 0.599,-0.661L0.599,0C0.599,0.003 0.603,0.003 0.603,0L0.603,-0.661ZM0.603,-0.196C0.603,-0.199 0.599,-0.199 0.599,-0.196C0.599,-0.081 0.506,0.008 0.396,0.008C0.286,0.008 0.192,-0.081 0.192,-0.196L0.192,-0.661C0.192,-0.664 0.188,-0.664 0.188,-0.661L0.188,-0.196C0.188,-0.079 0.284,0.012 0.396,0.012C0.508,0.012 0.603,-0.079 0.603,-0.196Z" style="fill-rule:nonzero;"/>
        </g>
        <g transform="matrix(366.667,0,0,366.667,2046.13,6004.84)">
            <path d="M0.603,-0.196C0.603,-0.199 0.599,-0.199 0.599,-0.196C0.599,-0.081 0.506,0.008 0.396,0.008C0.286,0.008 0.192,-0.081 0.192,-0.196L0.192,-0.46C0.192,-0.575 0.286,-0.664 0.396,-0.664C0.506,-0.664 0.599,-0.575 0.599,-0.46C0.599,-0.457 0.603,-0.457 0.603,-0.46C0.603,-0.577 0.508,-0.668 0.396,-0.668C0.284,-0.668 0.188,-0.577 0.188,-0.46L0.188,-0.196C0.188,-0.079 0.284,0.012 0.396,0.012C0.508,0.012 0.603,-0.079 0.603,-0.196Z" style="fill-rule:nonzero;"/>
        </g>
        <g transform="matrix(366.667,0,0,366.667,2321.86,6004.84)">
            <path d="M0.189,0C0.189,0.003 0.193,0.003 0.193,0L0.193,-1C0.193,-1.003 0.188,-1.003 0.188,-1L0.189,0ZM0.188,-0.46C0.188,-0.457 0.193,-0.457 0.193,-0.46C0.193,-0.575 0.286,-0.664 0.396,-0.664C0.506,-0.664 0.599,-0.575 0.599,-0.46L0.599,0C0.599,0.003 0.603,0.003 0.603,0L0.603,-0.46C0.603,-0.577 0.508,-0.668 0.396,-0.668C0.284,-0.668 0.188,-0.577 0.188,-0.46Z" style="fill-rule:nonzero;"/>
        </g>
        <g transform="matrix(366.667,0,0,366.667,2798.9,6004.84)">
            <path d="M0.203,-1C0.203,-1.003 0.198,-1.003 0.198,-1L0.198,-0.955C0.198,-0.952 0.203,-0.952 0.203,-0.955L0.203,-1ZM0.203,-0.661C0.203,-0.664 0.198,-0.664 0.198,-0.661L0.198,0C0.198,0.003 0.203,0.003 0.203,0L0.203,-0.661Z" style="fill-rule:nonzero;"/>
        </g>
        <g transform="matrix(366.667,0,0,366.667,2945.93,6004.84)">
            <path d="M0.189,0C0.189,0.003 0.193,0.003 0.193,0L0.193,-0.661C0.193,-0.664 0.188,-0.664 0.188,-0.661L0.189,0ZM0.188,-0.46C0.188,-0.457 0.193,-0.457 0.193,-0.46C0.193,-0.575 0.286,-0.664 0.396,-0.664C0.506,-0.664 0.599,-0.575 0.599,-0.46L0.599,0C0.599,0.003 0.603,0.003 0.603,0L0.603,-0.46C0.603,-0.577 0.508,-0.668 0.396,-0.668C0.284,-0.668 0.188,-0.577 0.188,-0.46Z" style="fill-rule:nonzero;"/>
        </g>
        <g transform="matrix(366.667,0,0,366.667,3422.96,6004.84)">
            <path d="M0.6,0C0.6,0.003 0.604,0.003 0.604,0L0.604,-1C0.604,-1.003 0.6,-1.003 0.6,-1L0.6,0ZM0.604,-0.196C0.604,-0.199 0.6,-0.199 0.6,-0.196C0.6,-0.081 0.506,0.008 0.396,0.008C0.287,0.008 0.193,-0.081 0.193,-0.196L0.193,-0.46C0.193,-0.575 0.287,-0.664 0.396,-0.664C0.506,-0.664 0.6,-0.575 0.6,-0.46C0.6,-0.457 0.604,-0.457 0.604,-0.46C0.604,-0.577 0.509,-0.668 0.396,-0.668C0.284,-0.668 0.189,-0.577 0.189,-0.46L0.189,-0.196C0.189,-0.079 0.284,0.012 0.396,0.012C0.509,0.012 0.604,-0.079 0.604,-0.196Z" style="fill-rule:nonzero;"/>
        </g>
        <g transform="matrix(366.667,0,0,366.667,3713,6004.84)">
            <path d="M0.191,-0.332C0.188,-0.332 0.188,-0.328 0.191,-0.328L0.606,-0.328C0.608,-0.328 0.608,-0.329 0.608,-0.33L0.608,-0.46C0.608,-0.577 0.511,-0.668 0.396,-0.668C0.284,-0.668 0.188,-0.577 0.188,-0.46L0.188,-0.199C0.188,-0.079 0.284,0.012 0.396,0.012C0.521,0.012 0.566,-0.042 0.602,-0.095C0.603,-0.098 0.6,-0.1 0.598,-0.098C0.564,-0.044 0.519,0.008 0.396,0.008C0.286,0.008 0.192,-0.081 0.192,-0.199L0.192,-0.332L0.192,-0.46C0.192,-0.575 0.286,-0.664 0.396,-0.664C0.508,-0.664 0.604,-0.575 0.604,-0.46L0.604,-0.332L0.192,-0.332L0.191,-0.332Z" style="fill-rule:nonzero;"/>
        </g>
        <g transform="matrix(366.667,0,0,366.667,4008.53,6004.84)">
            <path d="M0.163,-0.661C0.163,-0.664 0.158,-0.664 0.158,-0.661L0.158,0C0.158,0.003 0.163,0.003 0.163,0L0.163,-0.661ZM0.159,-0.533C0.158,-0.53 0.162,-0.529 0.163,-0.531C0.182,-0.604 0.24,-0.664 0.321,-0.664C0.366,-0.664 0.395,-0.638 0.413,-0.599C0.414,-0.597 0.418,-0.598 0.417,-0.601C0.398,-0.641 0.368,-0.668 0.321,-0.668C0.238,-0.668 0.178,-0.606 0.159,-0.533Z" style="fill-rule:nonzero;"/>
        </g>
        <g transform="matrix(366.667,0,0,366.667,4395.36,6004.84)">
            <path d="M0.688,-0.771C0.688,-0.768 0.692,-0.769 0.691,-0.771C0.673,-0.936 0.581,-1.012 0.448,-1.012C0.317,-1.012 0.2,-0.91 0.2,-0.775C0.2,-0.67 0.246,-0.636 0.33,-0.585L0.555,-0.451C0.652,-0.394 0.701,-0.349 0.701,-0.229C0.701,-0.096 0.581,0.008 0.448,0.008C0.304,0.008 0.194,-0.096 0.194,-0.234C0.194,-0.236 0.19,-0.236 0.19,-0.233C0.19,-0.094 0.302,0.012 0.449,0.012C0.582,0.012 0.705,-0.094 0.705,-0.229C0.705,-0.351 0.654,-0.397 0.558,-0.455L0.333,-0.589C0.248,-0.639 0.204,-0.672 0.204,-0.775C0.204,-0.907 0.318,-1.008 0.449,-1.008C0.578,-1.008 0.67,-0.934 0.688,-0.771Z" style="fill-rule:nonzero;"/>
        </g>
        <g transform="matrix(366.667,0,0,366.667,4707.4,6004.84)">
            <path d="M0.191,-0.332C0.188,-0.332 0.188,-0.328 0.191,-0.328L0.606,-0.328C0.608,-0.328 0.608,-0.329 0.608,-0.33L0.608,-0.46C0.608,-0.577 0.511,-0.668 0.396,-0.668C0.284,-0.668 0.188,-0.577 0.188,-0.46L0.188,-0.199C0.188,-0.079 0.284,0.012 0.396,0.012C0.521,0.012 0.566,-0.042 0.602,-0.095C0.603,-0.098 0.6,-0.1 0.598,-0.098C0.564,-0.044 0.519,0.008 0.396,0.008C0.286,0.008 0.192,-0.081 0.192,-0.199L0.192,-0.332L0.192,-0.46C0.192,-0.575 0.286,-0.664 0.396,-0.664C0.508,-0.664 0.604,-0.575 0.604,-0.46L0.604,-0.332L0.192,-0.332L0.191,-0.332Z" style="fill-rule:nonzero;"/>
        </g>
        <g transform="matrix(366.667,0,0,366.667,5002.93,6004.84)">
            <path d="M0.191,-0.332C0.188,-0.332 0.188,-0.328 0.191,-0.328L0.606,-0.328C0.608,-0.328 0.608,-0.329 0.608,-0.33L0.608,-0.46C0.608,-0.577 0.511,-0.668 0.396,-0.668C0.284,-0.668 0.188,-0.577 0.188,-0.46L0.188,-0.199C0.188,-0.079 0.284,0.012 0.396,0.012C0.521,0.012 0.566,-0.042 0.602,-0.095C0.603,-0.098 0.6,-0.1 0.598,-0.098C0.564,-0.044 0.519,0.008 0.396,0.008C0.286,0.008 0.192,-0.081 0.192,-0.199L0.192,-0.332L0.192,-0.46C0.192,-0.575 0.286,-0.664 0.396,-0.664C0.508,-0.664 0.604,-0.575 0.604,-0.46L0.604,-0.332L0.192,-0.332L0.191,-0.332Z" style="fill-rule:nonzero;"/>
        </g>
        <g transform="matrix(366.667,0,0,366.667,5298.46,6004.84)">
            <path d="M0.173,-1C0.173,-1.003 0.168,-1.003 0.168,-1L0.168,-0.109C0.168,-0.034 0.218,0.002 0.276,0.002C0.279,0.002 0.279,-0.002 0.276,-0.002C0.22,-0.002 0.172,-0.036 0.172,-0.109L0.173,-1Z" style="fill-rule:nonzero;"/>
        </g>
        <g transform="matrix(366.667,0,0,366.667,5455.03,6004.84)">
            <path d="M0.191,-0.332C0.188,-0.332 0.188,-0.328 0.191,-0.328L0.606,-0.328C0.608,-0.328 0.608,-0.329 0.608,-0.33L0.608,-0.46C0.608,-0.577 0.511,-0.668 0.396,-0.668C0.284,-0.668 0.188,-0.577 0.188,-0.46L0.188,-0.199C0.188,-0.079 0.284,0.012 0.396,0.012C0.521,0.012 0.566,-0.042 0.602,-0.095C0.603,-0.098 0.6,-0.1 0.598,-0.098C0.564,-0.044 0.519,0.008 0.396,0.008C0.286,0.008 0.192,-0.081 0.192,-0.199L0.192,-0.332L0.192,-0.46C0.192,-0.575 0.286,-0.664 0.396,-0.664C0.508,-0.664 0.604,-0.575 0.604,-0.46L0.604,-0.332L0.192,-0.332L0.191,-0.332Z" style="fill-rule:nonzero;"/>
        </g>
    </g>
</svg>
