<?xml version="1.0" encoding="UTF-8" standalone="no"?>
<!DOCTYPE svg PUBLIC "-//W3C//DTD SVG 1.1//EN" "http://www.w3.org/Graphics/SVG/1.1/DTD/svg11.dtd">
<svg width="100%" height="100%" viewBox="0 0 7712 6000" version="1.1" xmlns="http://www.w3.org/2000/svg" xmlns:xlink="http://www.w3.org/1999/xlink" xml:space="preserve" xmlns:serif="http://www.serif.com/" style="fill-rule:evenodd;clip-rule:evenodd;stroke-linecap:round;stroke-linejoin:round;stroke-miterlimit:1.5;">
    <g id="line01">
        <path d="M1407.55,608.666L1419.75,621.337" style="fill:none;stroke:rgb(255,0,0);stroke-width:3.4px;"/>
        <path d="M1431.95,611.951C1443.31,655.448 1439.15,689.971 1426.68,718.842" style="fill:none;stroke:rgb(255,0,0);stroke-width:3.4px;"/>
        <path d="M1504.23,568.871C1511.25,580.547 1502.04,642.03 1490.99,716.937C1489.51,726.97 1494.7,793.231 1470.21,841.057" style="fill:none;stroke:rgb(255,0,0);stroke-width:3.4px;"/>
        <path d="M1572.86,674.977C1571.24,692.281 1570.29,706.741 1567.09,720.15" style="fill:none;stroke:rgb(255,0,0);stroke-width:3.4px;"/>
        <path d="M1601.31,678.245C1602.13,686.805 1604.51,694.584 1608.61,701.504" style="fill:none;stroke:rgb(255,0,0);stroke-width:3.4px;"/>
        <path d="M1630.72,678.63L1640.9,693.046" style="fill:none;stroke:rgb(255,0,0);stroke-width:3.4px;"/>
        <path d="M1663.7,679.322L1661.59,718.458" style="fill:none;stroke:rgb(255,0,0);stroke-width:3.4px;"/>
        <path d="M1752.7,585.594C1721.22,715.342 1711.18,809.074 1720.72,869.929" style="fill:none;stroke:rgb(255,0,0);stroke-width:3.4px;"/>
        <path d="M1911.4,676.631L1928.78,682.628" style="fill:none;stroke:rgb(255,0,0);stroke-width:3.4px;"/>
        <path d="M1931.7,610.967C1938.71,626.152 1943.34,640.686 1945.85,654.64" style="fill:none;stroke:rgb(255,0,0);stroke-width:3.4px;"/>
        <path d="M1989.67,618.195L2002.28,660.484" style="fill:none;stroke:rgb(255,0,0);stroke-width:3.4px;"/>
        <path d="M2039.65,587.901C2047.71,601.903 2053.17,618.853 2055.49,632.035" style="fill:none;stroke:rgb(255,0,0);stroke-width:3.4px;"/>
        <path d="M2091.01,590.976C2087.66,612.349 2085.7,632.602 2084.4,652.334" style="fill:none;stroke:rgb(255,0,0);stroke-width:3.4px;"/>
        <path d="M1959.07,710.154C1954.32,744.374 1973.92,748.825 1986.75,714.614" style="fill:none;stroke:rgb(255,0,0);stroke-width:3.4px;"/>
        <path d="M2033.81,669.864C2030.33,678.243 2025.84,684.591 2019.97,688.164" style="fill:none;stroke:rgb(255,0,0);stroke-width:3.4px;"/>
        <path d="M2065.66,675.001C2073.45,685.052 2079.11,681.272 2083.69,670.496" style="fill:none;stroke:rgb(255,0,0);stroke-width:3.4px;"/>
        <path d="M1964.14,696.16C1984.66,680.327 1996.61,684.139 2003.51,699.543C1994.36,745.267 1987.34,790.99 1980.6,836.713" style="fill:none;stroke:rgb(255,0,0);stroke-width:3.4px;"/>
        <path d="M2043.34,720.15C2060.25,749.629 2070.03,741.378 2073.33,698.775C2077.21,702.332 2072.39,761.028 2064.26,840.711" style="fill:none;stroke:rgb(255,0,0);stroke-width:3.4px;"/>
        <path d="M2196.45,522.074C2162.24,658.649 2148.87,806.586 2149.9,962.383" style="fill:none;stroke:rgb(255,0,0);stroke-width:3.4px;"/>
        <path d="M2439.73,656.63L2414.51,739.225" style="fill:none;stroke:rgb(255,0,0);stroke-width:3.4px;"/>
        <path d="M2423.22,734.119C2407.01,757.331 2413.49,763.169 2434.93,757.547C2434.07,777.051 2429.58,794.908 2419.91,810.408" style="fill:none;stroke:rgb(255,0,0);stroke-width:3.4px;"/>
        <path d="M2426.98,724.558C2433.12,727.931 2441.07,729.495 2450.41,729.664" style="fill:none;stroke:rgb(255,0,0);stroke-width:3.4px;"/>
        <path d="M2515.42,596.26L2522.33,654.227" style="fill:none;stroke:rgb(255,0,0);stroke-width:3.4px;"/>
        <path d="M2490.79,668.644C2501.29,673.523 2508.33,667.569 2512.42,652.425" style="fill:none;stroke:rgb(255,0,0);stroke-width:3.4px;"/>
        <path d="M2540.35,626.295C2549.72,635.711 2561.32,649.216 2568.28,662.637" style="fill:none;stroke:rgb(255,0,0);stroke-width:3.4px;"/>
        <path d="M2529.54,692.371C2545.23,697.372 2550.99,688.273 2551.46,671.647" style="fill:none;stroke:rgb(255,0,0);stroke-width:3.4px;"/>
        <path d="M2496.2,724.508C2479,776.863 2486.97,776.075 2513.02,737.123" style="fill:none;stroke:rgb(255,0,0);stroke-width:3.4px;"/>
        <path d="M2508.81,722.106C2523.11,717.442 2521.86,741.389 2516.92,788.783" style="fill:none;stroke:rgb(255,0,0);stroke-width:3.4px;"/>
        <path d="M2588.11,701.682C2568.68,749.448 2611.33,755.133 2609.73,701.081C2614.68,731.516 2612.41,761.952 2608.53,792.387" style="fill:none;stroke:rgb(255,0,0);stroke-width:3.4px;"/>
        <path d="M2594.71,601.666C2612.38,624.13 2626.31,649.084 2634.36,677.954C2642.96,701.015 2653.1,697.847 2664.09,680.057" style="fill:none;stroke:rgb(255,0,0);stroke-width:3.4px;"/>
        <path d="M2582.4,685.163C2586.6,692.076 2600.62,690.764 2606.43,682.46" style="fill:none;stroke:rgb(255,0,0);stroke-width:3.4px;"/>
        <path d="M2668,603.468C2669.7,625.662 2675.01,652.757 2683.92,672.548" style="fill:none;stroke:rgb(255,0,0);stroke-width:3.4px;"/>
        <path d="M2748.79,556.314C2727.36,647.103 2717.65,736.439 2710.65,824.824" style="fill:none;stroke:rgb(255,0,0);stroke-width:3.4px;"/>
        <path d="M2902.57,595.059C2911.3,615.741 2916.47,634.646 2918.79,652.125" style="fill:none;stroke:rgb(255,0,0);stroke-width:3.4px;"/>
        <path d="M2885.75,689.968L2904.97,692.071" style="fill:none;stroke:rgb(255,0,0);stroke-width:3.4px;"/>
        <path d="M2960.84,588.151L2980.66,683.661" style="fill:none;stroke:rgb(255,0,0);stroke-width:3.4px;"/>
        <path d="M2941.01,697.177L2955.13,695.975" style="fill:none;stroke:rgb(255,0,0);stroke-width:3.4px;"/>
        <path d="M3035.92,584.847C3033.9,604.501 3039.05,622.058 3043.43,640.111" style="fill:none;stroke:rgb(255,0,0);stroke-width:3.4px;"/>
        <path d="M3071.37,622.991C3072.57,637.921 3075.36,649.014 3082.18,650.323" style="fill:none;stroke:rgb(255,0,0);stroke-width:3.4px;"/>
        <path d="M2931.7,765.055C2921.21,791.005 2922.97,804.984 2946.12,798.093" style="fill:none;stroke:rgb(255,0,0);stroke-width:3.4px;"/>
        <path d="M2949.12,759.048C2950.49,780.817 2950.76,800.953 2947.32,815.514" style="fill:none;stroke:rgb(255,0,0);stroke-width:3.4px;"/>
        <path d="M2995.08,689.668C2971.53,755.976 2969.27,780.645 3000.18,740.427" style="fill:none;stroke:rgb(255,0,0);stroke-width:3.4px;"/>
        <path d="M3004.39,725.409L3005.59,741.328" style="fill:none;stroke:rgb(255,0,0);stroke-width:3.4px;"/>
        <path d="M3031.12,724.809C3029.03,760.913 3037.31,765.494 3053.64,745.533" style="fill:none;stroke:rgb(255,0,0);stroke-width:3.4px;"/>
        <path d="M3047.94,701.382C3059.56,706.462 3067.25,701.907 3071.66,689.368" style="fill:none;stroke:rgb(255,0,0);stroke-width:3.4px;"/>
        <path d="M3050.34,715.798C3080.68,700.566 3054.24,795.905 3018.5,926.942" style="fill:none;stroke:rgb(255,0,0);stroke-width:3.4px;"/>
        <path d="M3147.65,529.283C3144.72,588.366 3127.25,631.663 3120.5,689.248C3114,744.635 3109.96,811.076 3092.09,864.771" style="fill:none;stroke:rgb(255,0,0);stroke-width:3.4px;"/>
    </g>
    <g id="line02">
        <path d="M2114.47,925.076C2123.97,944.225 2113.77,985.53 2084.78,1047.98" style="fill:none;stroke:rgb(255,0,0);stroke-width:3.4px;"/>
        <path d="M2191.14,875.089C2160.69,972.274 2136.11,1051.32 2133.12,1126.45" style="fill:none;stroke:rgb(255,0,0);stroke-width:3.4px;"/>
        <path d="M2185.13,1007.01C2173.21,1041.28 2165.78,1076.05 2161.08,1111.12" style="fill:none;stroke:rgb(255,0,0);stroke-width:3.4px;"/>
        <path d="M2295.7,963.186L2284.35,1033.69" style="fill:none;stroke:rgb(255,0,0);stroke-width:3.4px;"/>
        <path d="M2353.13,960.405C2351.13,984.563 2349.13,1003.05 2347.12,1016.78" style="fill:none;stroke:rgb(255,0,0);stroke-width:3.4px;"/>
        <path d="M2419.73,959.879C2416.4,978.243 2415.23,992.704 2415.9,1003.85" style="fill:none;stroke:rgb(255,0,0);stroke-width:3.4px;"/>
        <path d="M2463.78,1004.53C2457.64,934.359 2491.91,966.322 2531.28,1047.22" style="fill:none;stroke:rgb(255,0,0);stroke-width:3.4px;"/>
        <path d="M2524.52,1021.29C2491.94,1086.07 2593.28,1072.9 2542.56,1019.41" style="fill:none;stroke:rgb(255,0,0);stroke-width:3.4px;"/>
        <path d="M2527.53,952.136C2526.8,982.273 2558.03,1020.09 2569.78,1049.74C2584.25,1086.22 2590.98,1114.36 2606.23,1151.86" style="fill:none;stroke:rgb(255,0,0);stroke-width:3.4px;"/>
        <path d="M2557.59,1043.47C2554.68,1083.02 2536.4,1116.77 2530.53,1155.47" style="fill:none;stroke:rgb(255,0,0);stroke-width:3.4px;"/>
        <path d="M2386.36,1165.32C2445.65,1104.06 2603.2,1015.05 2725.22,947.626" style="fill:none;stroke:rgb(255,0,0);stroke-width:3.4px;"/>
        <path d="M2398.61,1183.28C2456.44,1123.08 2521.28,1070.97 2589.54,1022.8" style="fill:none;stroke:rgb(255,0,0);stroke-width:3.4px;"/>
        <path d="M2679.37,883.733C2639.8,1065.22 2616.74,1198.69 2631.41,1251.68" style="fill:none;stroke:rgb(255,0,0);stroke-width:3.4px;"/>
        <path d="M2879.69,990.097C2875.76,1033.71 2887.23,1038.59 2909.76,1015.65" style="fill:none;stroke:rgb(255,0,0);stroke-width:3.4px;"/>
        <path d="M2902.62,985.211C2969.88,978.333 2926.67,1028.61 2894.8,1119.16" style="fill:none;stroke:rgb(255,0,0);stroke-width:3.4px;"/>
        <path d="M3025.14,1010.39C3005.84,1048.43 3021.72,1046.26 3052.95,1026.55" style="fill:none;stroke:rgb(255,0,0);stroke-width:3.4px;"/>
        <path d="M3036.42,998.365C3104.2,985.656 3095.97,1060.76 3032.66,1143.07" style="fill:none;stroke:rgb(255,0,0);stroke-width:3.4px;"/>
        <path d="M2974.78,951.385L2995.45,956.647" style="fill:none;stroke:rgb(255,0,0);stroke-width:3.4px;"/>
        <path d="M3004.09,895.008L3019.13,939.358" style="fill:none;stroke:rgb(255,0,0);stroke-width:3.4px;"/>
        <path d="M3025.52,972.432L3049.2,970.929" style="fill:none;stroke:rgb(255,0,0);stroke-width:3.4px;"/>
        <path d="M3051.45,903.653L3076.26,929.586" style="fill:none;stroke:rgb(255,0,0);stroke-width:3.4px;"/>
        <path d="M3101.81,963.788L3121.73,968.298" style="fill:none;stroke:rgb(255,0,0);stroke-width:3.4px;"/>
        <path d="M3140.53,899.894L3146.54,937.479" style="fill:none;stroke:rgb(255,0,0);stroke-width:3.4px;"/>
        <path d="M3162.7,969.801L3199.91,967.922" style="fill:none;stroke:rgb(255,0,0);stroke-width:3.4px;"/>
        <path d="M3208.93,890.874L3209.68,948.754" style="fill:none;stroke:rgb(255,0,0);stroke-width:3.4px;"/>
        <path d="M3435.19,852.162L3460.74,847.652" style="fill:none;stroke:rgb(255,0,0);stroke-width:3.4px;"/>
        <path d="M3502.46,857.424C3441.85,1102.31 3413.58,1258.67 3447.59,1244.54" style="fill:none;stroke:rgb(255,0,0);stroke-width:3.4px;"/>
        <path d="M3565.38,910.794C3440.12,1140.02 3573.55,980.011 3509.23,1115.63" style="fill:none;stroke:rgb(255,0,0);stroke-width:3.4px;"/>
        <path d="M3531.03,988.593L3567.86,1017.53" style="fill:none;stroke:rgb(255,0,0);stroke-width:3.4px;"/>
        <path d="M3584.02,1025.8C3569.56,1081.64 3582.11,1079.03 3606.95,1049.86" style="fill:none;stroke:rgb(255,0,0);stroke-width:3.4px;"/>
        <path d="M3602.06,1010.77C3647.17,995.812 3645.6,1038 3583.27,1151.33" style="fill:none;stroke:rgb(255,0,0);stroke-width:3.4px;"/>
        <path d="M3743.75,1001.75C3750.43,1021.1 3765.44,1029.5 3787.35,1028.81" style="fill:none;stroke:rgb(255,0,0);stroke-width:3.4px;"/>
        <path d="M3774.2,987.09C3802.75,1032.53 3781.27,1101.41 3720.83,1188.54" style="fill:none;stroke:rgb(255,0,0);stroke-width:3.4px;"/>
        <path d="M3601.68,952.888L3609.2,966.043" style="fill:none;stroke:rgb(255,0,0);stroke-width:3.4px;"/>
        <path d="M3624.24,877.344L3631,934.848" style="fill:none;stroke:rgb(255,0,0);stroke-width:3.4px;"/>
        <path d="M3675.5,896.512C3680.14,916.162 3685.59,936.345 3685.42,954.391" style="fill:none;stroke:rgb(255,0,0);stroke-width:3.4px;"/>
        <path d="M3639.34,987.24C3650.17,990.472 3664.5,990.197 3669.71,982.204" style="fill:none;stroke:rgb(255,0,0);stroke-width:3.4px;"/>
        <path d="M3729.7,902.976C3742.56,923.39 3747.58,937.888 3748.41,948.679" style="fill:none;stroke:rgb(255,0,0);stroke-width:3.4px;"/>
        <path d="M3689.63,982.956C3697.82,986.008 3705.55,985.892 3712.93,983.331" style="fill:none;stroke:rgb(255,0,0);stroke-width:3.4px;"/>
        <path d="M3802.69,902.976C3806.64,920.34 3809.03,936.852 3805.77,951.009" style="fill:none;stroke:rgb(255,0,0);stroke-width:3.4px;"/>
        <path d="M3759.91,972.432C3767.97,977.609 3780.3,972.341 3791.56,962.284" style="fill:none;stroke:rgb(255,0,0);stroke-width:3.4px;"/>
        <path d="M3892.59,830.814C3879.01,961.679 3820.15,1074.05 3817.12,1174.34" style="fill:none;stroke:rgb(255,0,0);stroke-width:3.4px;"/>
        <path d="M3927.16,1066.39C3940.31,1101.31 3946.44,1093.14 3953.17,1051.88C3955.72,1064.85 3955.66,1081.86 3953.4,1107.66" style="fill:none;stroke:rgb(255,0,0);stroke-width:3.4px;"/>
        <path d="M4003.46,990.472C4005.21,1001.12 4015.87,998.59 4037.66,979.573C4022.18,1039.27 4020.54,1069.49 4049.16,1035.35L4053.82,1048.35" style="fill:none;stroke:rgb(255,0,0);stroke-width:3.4px;"/>
        <path d="M4102.23,1027.83C4092.78,1078.02 4112.88,1072.79 4137.71,1054.52" style="fill:none;stroke:rgb(255,0,0);stroke-width:3.4px;"/>
        <path d="M4136.81,1022.42C4141.98,1076.74 4128.91,1125.8 4093.89,1158.17" style="fill:none;stroke:rgb(255,0,0);stroke-width:3.4px;"/>
        <path d="M3954.23,966.794L3974.15,981.828" style="fill:none;stroke:rgb(255,0,0);stroke-width:3.4px;"/>
        <path d="M3991.43,920.566L4000.83,954.016" style="fill:none;stroke:rgb(255,0,0);stroke-width:3.4px;"/>
        <path d="M4034.13,916.356C4035.05,928.508 4051.07,940.36 4062.85,957.022" style="fill:none;stroke:rgb(255,0,0);stroke-width:3.4px;"/>
        <path d="M4064.27,986.639C4075.51,990.538 4085.91,989.429 4095.54,983.707" style="fill:none;stroke:rgb(255,0,0);stroke-width:3.4px;"/>
        <path d="M4109.9,905.532C4106.5,926.762 4110.29,943.911 4120.72,961.532" style="fill:none;stroke:rgb(255,0,0);stroke-width:3.4px;"/>
        <path d="M4122.08,986.188C4131.19,1004.54 4147.34,1005.57 4157.26,983.031" style="fill:none;stroke:rgb(255,0,0);stroke-width:3.4px;"/>
        <path d="M4155.3,959.653C4154.49,977.714 4160.62,979.102 4171.84,968.298" style="fill:none;stroke:rgb(255,0,0);stroke-width:3.4px;"/>
        <path d="M4300,841.638C4277.01,964.304 4272.46,1085.25 4234.23,1197.19" style="fill:none;stroke:rgb(255,0,0);stroke-width:3.4px;"/>
    </g>
</svg>
